<svg width="32" height="32" viewBox="0 0 32 32" fill="none" xmlns="http://www.w3.org/2000/svg">
<path d="M17.6165 16.0045L26.7355 6.8855C26.9157 6.67507 27.0099 6.40439 26.9992 6.12754C26.9885 5.8507 26.8737 5.58809 26.6778 5.39218C26.4819 5.19628 26.2193 5.08151 25.9425 5.07082C25.6656 5.06012 25.3949 5.15429 25.1845 5.3345L16.0655 14.4535L6.9465 5.3235C6.73936 5.11637 6.45843 5 6.1655 5C5.87257 5 5.59163 5.11637 5.3845 5.3235C5.17736 5.53063 5.061 5.81157 5.061 6.1045C5.061 6.39743 5.17736 6.67837 5.3845 6.8855L14.5145 16.0045L5.3845 25.1235C5.26935 25.2221 5.17583 25.3435 5.1098 25.4799C5.04377 25.6164 5.00667 25.7651 5.00082 25.9165C4.99497 26.068 5.02049 26.2191 5.0758 26.3603C5.1311 26.5014 5.21498 26.6296 5.32218 26.7368C5.42938 26.844 5.55758 26.9279 5.69874 26.9832C5.8399 27.0385 5.99097 27.064 6.14246 27.0582C6.29395 27.0523 6.44259 27.0152 6.57906 26.9492C6.71554 26.8832 6.83689 26.7897 6.9355 26.6745L16.0655 17.5555L25.1845 26.6745C25.3949 26.8547 25.6656 26.9489 25.9425 26.9382C26.2193 26.9275 26.4819 26.8127 26.6778 26.6168C26.8737 26.4209 26.9885 26.1583 26.9992 25.8815C27.0099 25.6046 26.9157 25.3339 26.7355 25.1235L17.6165 16.0045Z" fill="white" stroke="white" stroke-width="0.7"/>
</svg>
