<svg width="32" height="32" viewBox="0 0 32 32" fill="none" xmlns="http://www.w3.org/2000/svg">
<rect width="32" height="32" rx="16" fill="#282E3F"/>
<path d="M20.8406 21.857C20.5648 21.857 20.3171 21.7537 20.0975 21.5472C19.8783 21.3401 19.7688 21.0986 19.7688 20.8229V13.452L11.3637 21.857C11.1506 22.0701 10.8997 22.1767 10.6109 22.1767C10.323 22.1767 10.0726 22.0701 9.85948 21.857C9.64638 21.6439 9.53958 21.3932 9.53908 21.1049C9.53958 20.8166 9.64638 20.5659 9.85948 20.3528L18.2645 11.9477L10.8937 11.9477C10.6179 11.9477 10.3764 11.8382 10.1694 11.6191C9.96277 11.3994 9.85948 11.1517 9.85948 10.876C9.85948 10.6002 9.96603 10.3557 10.1791 10.1426C10.3922 9.92954 10.6367 9.82299 10.9125 9.82299L20.8406 9.82299C20.9784 9.81045 21.1101 9.83527 21.2354 9.89745C21.3608 9.96063 21.4736 10.0424 21.5739 10.1426C21.6742 10.2429 21.7526 10.3525 21.8093 10.4713C21.8655 10.5907 21.8935 10.7255 21.8935 10.876V20.8041C21.8935 21.0798 21.787 21.3243 21.5739 21.5374C21.3608 21.7505 21.1163 21.857 20.8406 21.857Z" fill="white"/>
</svg>
