<svg width="32" height="32" viewBox="0 0 32 32" fill="none" xmlns="http://www.w3.org/2000/svg">
<path d="M16 6.6665C15.6464 6.6665 15.3072 6.80698 15.0572 7.05703C14.8071 7.30708 14.6667 7.64622 14.6667 7.99984C14.6667 8.35346 14.8071 8.6926 15.0572 8.94265C15.3072 9.19269 15.6464 9.33317 16 9.33317H26.6667C27.0203 9.33317 27.3594 9.19269 27.6095 8.94265C27.8595 8.6926 28 8.35346 28 7.99984C28 7.64622 27.8595 7.30708 27.6095 7.05703C27.3594 6.80698 27.0203 6.6665 26.6667 6.6665H16ZM9.33333 15.9998C9.33333 15.6462 9.47381 15.3071 9.72386 15.057C9.97391 14.807 10.313 14.6665 10.6667 14.6665H21.3333C21.687 14.6665 22.0261 14.807 22.2761 15.057C22.5262 15.3071 22.6667 15.6462 22.6667 15.9998C22.6667 16.3535 22.5262 16.6926 22.2761 16.9426C22.0261 17.1927 21.687 17.3332 21.3333 17.3332H10.6667C10.313 17.3332 9.97391 17.1927 9.72386 16.9426C9.47381 16.6926 9.33333 16.3535 9.33333 15.9998ZM4 23.9998C4 23.6462 4.14048 23.3071 4.39052 23.057C4.64057 22.807 4.97971 22.6665 5.33333 22.6665H16C16.3536 22.6665 16.6928 22.807 16.9428 23.057C17.1929 23.3071 17.3333 23.6462 17.3333 23.9998C17.3333 24.3535 17.1929 24.6926 16.9428 24.9426C16.6928 25.1927 16.3536 25.3332 16 25.3332H5.33333C4.97971 25.3332 4.64057 25.1927 4.39052 24.9426C4.14048 24.6926 4 24.3535 4 23.9998Z" fill="white"/>
</svg>
