<svg width="32" height="32" viewBox="0 0 32 32" fill="none" xmlns="http://www.w3.org/2000/svg">
<rect width="32" height="32" rx="16" fill="white" fill-opacity="0.2"/>
<path d="M16.0001 5C13.015 5 12.6396 5.01375 11.4667 5.066C10.2939 5.121 9.49499 5.30525 8.79511 5.5775C8.06099 5.85363 7.39604 6.28676 6.84674 6.84663C6.28722 7.39621 5.85414 8.06108 5.57761 8.795C5.30536 9.4935 5.11974 10.2937 5.06611 11.4625C5.01386 12.6381 5.00011 13.0121 5.00011 16.0014C5.00011 18.9879 5.01386 19.3619 5.06611 20.5348C5.12111 21.7063 5.30536 22.5051 5.57761 23.205C5.85949 23.9282 6.23486 24.5415 6.84674 25.1534C7.45724 25.7652 8.07049 26.142 8.79374 26.4225C9.49499 26.6947 10.2925 26.8804 11.464 26.934C12.6382 26.9862 13.0122 27 16.0001 27C18.988 27 19.3606 26.9862 20.5349 26.934C21.705 26.879 22.5066 26.6947 23.2065 26.4225C23.9401 26.1462 24.6046 25.7131 25.1535 25.1534C25.7654 24.5415 26.1407 23.9282 26.4226 23.205C26.6935 22.5051 26.8791 21.7063 26.9341 20.5348C26.9864 19.3619 27.0001 18.9879 27.0001 16C27.0001 13.0121 26.9864 12.6381 26.9341 11.4639C26.8791 10.2938 26.6935 9.4935 26.4226 8.795C26.1461 8.06106 25.713 7.39618 25.1535 6.84663C24.6044 6.28655 23.9394 5.85339 23.2051 5.5775C22.5039 5.30525 21.7036 5.11963 20.5335 5.066C19.3592 5.01375 18.9866 5 15.9974 5H16.0015H16.0001ZM15.0142 6.98275H16.0015C18.9385 6.98275 19.2864 6.99238 20.4455 7.046C21.518 7.09413 22.101 7.27425 22.4887 7.42413C23.0016 7.6235 23.3687 7.86275 23.7537 8.24775C24.1387 8.63275 24.3766 8.9985 24.576 9.51275C24.7272 9.89913 24.906 10.4821 24.9541 11.5546C25.0077 12.7138 25.0187 13.0616 25.0187 15.9973C25.0187 18.9329 25.0077 19.2821 24.9541 20.4412C24.906 21.5137 24.7259 22.0954 24.576 22.4831C24.3996 22.9607 24.1182 23.3926 23.7524 23.7467C23.3674 24.1317 23.0016 24.3696 22.4874 24.569C22.1024 24.7203 21.5194 24.899 20.4455 24.9485C19.2864 25.0008 18.9385 25.0131 16.0015 25.0131C13.0645 25.0131 12.7152 25.0008 11.5561 24.9485C10.4836 24.899 9.90199 24.7203 9.51424 24.569C9.03643 24.3929 8.60416 24.1119 8.24924 23.7467C7.88315 23.392 7.60123 22.9598 7.42424 22.4817C7.27436 22.0954 7.09424 21.5124 7.04611 20.4399C6.99386 19.2808 6.98286 18.9329 6.98286 15.9945C6.98286 13.0575 6.99386 12.711 7.04611 11.5519C7.09561 10.4794 7.27436 9.89638 7.42561 9.50863C7.62499 8.99575 7.86424 8.62862 8.24924 8.24362C8.63424 7.85862 8.99999 7.62075 9.51424 7.42138C9.90199 7.27013 10.4836 7.09138 11.5561 7.04188C12.5709 6.99513 12.9641 6.98138 15.0142 6.98V6.98275ZM21.8727 8.80875C21.6994 8.80875 21.5277 8.84289 21.3676 8.90923C21.2074 8.97557 21.0619 9.0728 20.9394 9.19537C20.8168 9.31794 20.7196 9.46346 20.6532 9.62361C20.5869 9.78376 20.5527 9.95541 20.5527 10.1288C20.5527 10.3021 20.5869 10.4737 20.6532 10.6339C20.7196 10.794 20.8168 10.9396 20.9394 11.0621C21.0619 11.1847 21.2074 11.2819 21.3676 11.3483C21.5277 11.4146 21.6994 11.4488 21.8727 11.4488C22.2228 11.4488 22.5586 11.3097 22.8061 11.0621C23.0537 10.8146 23.1927 10.4788 23.1927 10.1288C23.1927 9.77866 23.0537 9.44292 22.8061 9.19537C22.5586 8.94782 22.2228 8.80875 21.8727 8.80875ZM16.0015 10.3515C15.2522 10.3398 14.5081 10.4773 13.8125 10.7559C13.1168 11.0346 12.4836 11.4488 11.9496 11.9746C11.4156 12.5003 10.9915 13.127 10.702 13.8182C10.4126 14.5094 10.2635 15.2513 10.2635 16.0007C10.2635 16.7501 10.4126 17.4919 10.702 18.1831C10.9915 18.8743 11.4156 19.5011 11.9496 20.0268C12.4836 20.5525 13.1168 20.9668 13.8125 21.2454C14.5081 21.5241 15.2522 21.6616 16.0015 21.6499C17.4845 21.6267 18.8989 21.0214 19.9395 19.9645C20.98 18.9076 21.5632 17.4839 21.5632 16.0007C21.5632 14.5175 20.98 13.0938 19.9395 12.0369C18.8989 10.98 17.4845 10.3746 16.0015 10.3515ZM16.0015 12.3329C16.9741 12.3329 17.9068 12.7192 18.5945 13.407C19.2823 14.0947 19.6686 15.0274 19.6686 16C19.6686 16.9726 19.2823 17.9053 18.5945 18.593C17.9068 19.2808 16.9741 19.6671 16.0015 19.6671C15.0289 19.6671 14.0962 19.2808 13.4084 18.593C12.7207 17.9053 12.3344 16.9726 12.3344 16C12.3344 15.0274 12.7207 14.0947 13.4084 13.407C14.0962 12.7192 15.0289 12.3329 16.0015 12.3329Z" fill="white"/>
</svg>
