<svg width="32" height="32" viewBox="0 0 32 32" fill="none" xmlns="http://www.w3.org/2000/svg">
<rect width="32" height="32" rx="16" fill="white" fill-opacity="0.2"/>
<path d="M26.9422 8.91275C26.8806 8.76615 26.7769 8.64108 26.6443 8.55328C26.5118 8.46549 26.3561 8.41891 26.1971 8.4194H23.1364C22.7691 7.77858 22.2592 7.2309 21.6462 6.81877C21.0333 6.40665 20.3337 6.14115 19.6016 6.04283C18.8696 5.94451 18.1247 6.01601 17.4247 6.25179C16.7247 6.48757 16.0884 6.88131 15.565 7.40251C15.1068 7.84931 14.7425 8.38319 14.4935 8.97278C14.2445 9.56237 14.1159 10.1958 14.1152 10.8358V11.45C10.0174 10.3827 6.66467 7.08032 6.63447 7.04005C6.52915 6.93644 6.39736 6.86379 6.25353 6.83005C6.10969 6.79631 5.95934 6.80278 5.81894 6.84875C5.67898 6.89329 5.55364 6.97481 5.45617 7.08468C5.35871 7.19456 5.29272 7.32871 5.26518 7.47299C4.38924 12.3259 5.84914 15.5779 7.2285 17.4506C7.92034 18.3976 8.76002 19.2271 9.71536 19.9073C8.17491 21.6491 5.7988 22.5553 5.77866 22.5653C5.66504 22.6075 5.56239 22.6747 5.47836 22.762C5.39432 22.8494 5.33108 22.9545 5.29334 23.0697C5.2556 23.1848 5.24433 23.307 5.26037 23.4272C5.27642 23.5473 5.31936 23.6622 5.386 23.7635C5.46655 23.8843 5.7686 24.2769 6.50358 24.6495C7.41979 25.1025 8.62799 25.3341 10.0879 25.3341C17.186 25.3341 23.1263 19.867 23.7304 12.8293L26.771 9.79876C26.8803 9.6823 26.9543 9.53728 26.9846 9.38049C27.0149 9.22369 27.0002 9.06153 26.9422 8.91275ZM22.3813 11.903C22.2409 12.0422 22.1582 12.2291 22.1497 12.4266C21.7369 18.7595 16.441 23.7232 10.0879 23.7232C9.02065 23.7232 8.2756 23.5822 7.75205 23.4111C8.9099 22.7868 10.5208 21.6995 11.5679 20.1389C11.6287 20.0444 11.6691 19.9383 11.6864 19.8273C11.7037 19.7164 11.6977 19.603 11.6686 19.4945C11.6393 19.3849 11.5874 19.2826 11.5164 19.1942C11.4453 19.1058 11.3565 19.0332 11.2558 18.981C11.2457 18.971 9.75563 18.1957 8.47696 16.4338C7.02713 14.4402 6.41297 12.0138 6.6546 9.2148C8.24539 10.5237 11.286 12.6581 14.7898 13.2421C14.9055 13.2607 15.0238 13.2541 15.1367 13.2228C15.2497 13.1916 15.3545 13.1363 15.4442 13.0609C15.5319 12.9842 15.6023 12.8898 15.6509 12.784C15.6995 12.6781 15.7251 12.5632 15.7261 12.4467V10.8358C15.7276 10.0968 15.9831 9.38074 16.4498 8.80773C16.9165 8.23471 17.566 7.83955 18.2894 7.6885C19.0128 7.53744 19.7662 7.63968 20.4232 7.97805C21.0802 8.31643 21.6009 8.87039 21.898 9.54705C21.9622 9.69098 22.0667 9.81323 22.1989 9.899C22.3312 9.98476 22.4854 10.0304 22.643 10.0303H24.2539L22.3813 11.903Z" fill="white"/>
</svg>
