<svg width="32" height="32" viewBox="0 0 32 32" fill="none" xmlns="http://www.w3.org/2000/svg">
<rect width="32" height="32" rx="16" fill="white" fill-opacity="0.2"/>
<path d="M25.2014 8.99788C24.606 8.56933 22.9468 8 15.9943 8C8.54383 8 7.43847 8.65381 7.08373 8.86773C5.1958 10.0019 5.01655 15.0232 5.00009 16.0414C5.02275 17.3861 5.24012 21.8601 7.08238 22.9668C7.43643 23.18 8.53558 23.8301 15.9943 23.8301C22.9512 23.8301 24.6084 23.2635 25.2014 22.8366C26.8105 21.6791 26.9956 17.6927 27.0001 16.0239C26.996 14.682 26.8552 10.1891 25.2015 8.9979L25.2014 8.99788ZM24.3993 21.722C24.16 21.8944 22.7857 22.4565 15.9942 22.4565C9.42834 22.4565 8.05068 21.9469 7.7904 21.79C7.12766 21.3923 6.42819 19.2816 6.37327 16.0376C6.42752 12.8008 7.13661 10.438 7.79181 10.0452C8.05279 9.88757 9.43558 9.37386 15.9942 9.37386C22.7802 9.37386 24.1582 9.93978 24.3993 10.1128C24.9875 10.5366 25.6173 12.7672 25.6265 16.0283C25.6173 19.3406 24.9834 21.3017 24.3993 21.722ZM20.473 15.3748L14.2935 11.5828C14.1893 11.52 14.0703 11.486 13.9487 11.4842C13.8271 11.4825 13.7071 11.5131 13.6012 11.5729C13.4952 11.6327 13.4069 11.7196 13.3455 11.8247C13.2841 11.9298 13.2517 12.0493 13.2516 12.171V19.7564C13.2517 19.9385 13.3241 20.1132 13.4529 20.2419C13.5817 20.3707 13.7563 20.4431 13.9384 20.4432C14.0634 20.4432 14.186 20.4091 14.2931 20.3446L20.4727 16.5513C20.6787 16.4266 20.8047 16.2038 20.8047 15.9631C20.8047 15.7223 20.6791 15.4988 20.473 15.3748H20.473ZM14.6255 18.5398V13.3869L18.7891 15.963L14.6255 18.5398Z" fill="white" stroke="white" stroke-width="0.5"/>
</svg>
