<svg width="36" height="38" viewBox="0 0 36 38" fill="none"
    xmlns="http://www.w3.org/2000/svg">
    <path d="M30.47 10.7667C30.8999 10.7124 31.3344 10.6536 31.7643 10.5993C31.9317 10.5812 32.0041 10.5088 32.0041 10.3277C31.9996 8.91126 31.9996 7.49026 31.9996 6.11452C31.5923 7.26399 31.1624 8.46324 30.7325 9.66701C30.6872 9.65344 30.642 9.63534 30.5967 9.62176C31.1036 8.11025 31.6059 6.59422 32.1308 5.0284C31.2574 5.20489 30.5198 5.57146 29.755 5.85204C29.6237 5.90182 29.5694 6.02401 29.5151 6.13714C29.1259 6.89742 28.9449 7.73011 28.6643 8.52659C28.6055 8.69856 28.6824 8.85695 28.7413 9.01535C29.0671 9.93402 29.5015 10.8029 29.8636 11.708C29.9993 12.0474 30.1261 12.4321 30.47 12.7127C30.7551 12.948 30.4293 13.2059 30.2075 13.3281C29.6916 13.6223 29.1259 13.7988 28.5286 13.8395C27.7095 13.8938 26.8994 13.8169 26.112 13.568C25.9264 13.5091 25.7318 13.4458 25.5915 13.301C25.4558 13.1607 25.3562 12.9797 25.5327 12.8303C25.7273 12.6674 25.7771 12.4547 25.8133 12.2375C25.9264 11.5722 26.302 11.002 26.4468 10.3458C26.5057 10.0743 26.5283 9.97927 26.2025 10.0743C25.3291 10.3323 24.4556 10.5857 23.5732 10.812C22.9351 10.9749 22.2834 11.0744 21.6363 11.2193C20.9439 11.3731 20.3918 11.7668 19.9347 12.2873C19.6088 12.6584 19.6224 13.1562 19.5681 13.6087C19.4459 14.6088 19.1608 15.5728 18.9843 16.5593C18.8486 17.3196 18.7354 18.0799 18.6268 18.8447C18.5906 19.0981 18.5861 19.3742 18.7852 19.5642C19.4776 20.2204 19.5953 21.1165 19.8442 21.9673C20.2153 23.2434 20.4053 24.5604 20.7538 25.8365C21.1068 27.1263 21.143 28.4658 21.5095 29.742C21.7494 30.5792 21.849 31.4346 21.9666 32.2854C22.0209 32.6655 22.1657 32.67 22.4508 32.5207C23.2428 32.1043 24.0438 31.7016 24.8358 31.2852C25.7544 30.8055 26.6595 30.3032 27.5827 29.8371C27.7954 29.7285 27.8588 29.6108 27.8588 29.389C27.8271 26.2303 27.8905 23.067 27.7909 19.9082C27.7411 18.3333 27.7276 16.7539 27.8497 15.1519C27.9855 15.2198 28.0036 15.3193 28.0036 15.4053C28.0715 17.4011 28.5195 19.3651 28.6145 21.3563C28.7232 23.6145 28.601 25.8728 28.6145 28.131C28.6191 28.5835 28.6191 29.0361 28.687 29.4796C28.8001 30.1991 28.2299 30.3756 27.7773 30.6154C26.6052 31.2354 25.4105 31.8237 24.2294 32.4256C22.5595 33.2764 20.8941 34.1272 19.2287 34.9871C18.1109 35.5618 16.9976 36.1546 15.8799 36.7339C15.4861 36.9421 15.0743 37.1231 14.6897 37.3494C14.4 37.5213 14.1375 37.458 13.8977 37.3177C12.273 36.3809 10.5805 35.5799 8.92419 34.702C6.78817 33.5706 4.62952 32.4845 2.47991 31.3757C1.81014 31.0273 1.15395 30.6562 0.475127 30.3213C0.144767 30.1584 0.0406815 29.9049 0.0678344 29.5746C0.167395 28.407 0.108564 27.2349 0.113089 26.0628C0.117615 24.7957 0.0678344 23.524 0.0859363 22.2569C0.0949872 21.4423 0.104038 20.6096 0.253379 19.8131C0.524908 18.3559 0.565637 16.8806 0.755707 15.4189C0.764758 15.3555 0.787385 15.2922 0.895997 15.2288C0.895997 15.5185 0.895997 15.8081 0.895997 16.1022C0.895997 20.2385 0.900522 24.3748 0.900522 28.5111C0.900522 28.6378 0.92315 28.7691 0.895997 28.8912C0.742131 29.5384 1.03176 29.8552 1.61102 30.1267C2.90078 30.7286 4.14982 31.4119 5.41695 32.0636C5.51651 31.9686 5.45315 31.8781 5.426 31.7921C5.16805 30.9684 4.90104 30.1493 4.66119 29.3257C4.58426 29.0632 4.45755 29.0044 4.20412 29.027C3.57508 29.0904 2.94151 29.0768 2.34415 29.3438C2.22196 29.3981 2.04094 29.4434 1.95496 29.3121C1.8735 29.1718 1.98664 29.027 2.05452 28.9093C2.20386 28.6423 2.47086 28.6016 2.74692 28.579C3.20852 28.5473 3.67464 28.5021 4.11814 28.3527C4.49375 28.2305 4.53448 28.1083 4.22675 27.864C3.8104 27.5381 3.60676 27.0539 3.27187 26.6738C3.12706 26.5063 3.01845 26.271 3.05012 26.0492C3.13158 25.4971 2.93246 24.9948 2.8148 24.4834C2.73334 24.1214 2.78312 23.782 2.87816 23.4426C2.94151 23.2163 3.07728 23.0308 3.33975 23.0036C3.59318 22.9764 3.7742 23.1077 3.89639 23.3159C4.05025 23.5738 4.19054 23.8363 4.35346 24.1259C4.64309 23.8182 4.66572 23.4335 4.71097 23.067C4.87389 21.7817 5.12279 20.501 5.53461 19.2837C5.76541 18.5958 5.92833 17.8174 6.50306 17.2608C6.64788 17.116 6.68861 16.858 6.76102 16.6453C7.26334 15.2243 7.58918 13.758 7.86523 12.2737C7.96932 11.708 8.17297 11.1514 8.32683 10.5857C8.48522 10.0064 8.96492 9.7349 9.4763 9.51315C10.2185 9.19184 11.0285 9.05608 11.7209 8.59448C12.0196 8.39536 11.9698 8.24149 11.7888 8.09215C11.4223 7.78442 11.2231 7.34545 10.8792 7.02414C10.6394 6.80239 10.6937 6.09189 10.9199 5.82036C11.4132 5.23205 11.7119 4.59395 11.635 3.79747C11.5942 3.36302 11.6576 2.92405 11.6485 2.48508C11.6395 2.10494 11.7979 1.79268 12.0468 1.56188C12.4857 1.15459 12.9609 0.778977 13.5221 0.543652C13.6262 0.498397 13.7438 0.457668 13.8479 0.471245C14.3231 0.534601 14.7937 0.489346 15.2689 0.457668C15.812 0.421464 16.1695 0.860436 16.4817 1.19985C16.9886 1.74743 17.3009 2.38552 16.9388 3.19558C16.7985 3.50784 16.794 3.90156 17.1877 4.19119C17.6086 4.49892 17.948 4.91074 17.8394 5.49452C17.7444 6.01043 18.0159 6.30911 18.4322 6.47655C18.8124 6.63042 19.0703 6.9291 19.3509 7.19158C19.6586 7.47668 19.5183 7.9066 19.5274 8.28222C19.5319 8.44061 19.3283 8.599 19.55 8.77097C19.6315 8.83433 19.455 8.87506 19.4143 8.87506C18.1245 8.95199 16.8393 9.21447 15.5404 9.00177C15.4409 8.98367 15.3775 8.96557 15.3956 8.85243C15.4318 8.60353 15.4137 8.332 15.5088 8.10573C15.7803 7.46311 15.8074 6.77976 15.898 6.10546C15.9025 6.08736 15.8753 6.06473 15.8572 6.02853C15.3685 6.27743 15.2689 6.72998 15.2146 7.20968C15.1875 7.46311 15.1648 7.71201 15.1331 7.96543C15.0426 8.66236 14.3367 8.97914 13.7529 8.58995C13.3682 8.33652 13.0107 7.59887 13.0379 7.11012C13.332 7.24588 13.427 7.52194 13.5357 7.78894C13.6669 8.10572 13.8253 8.39988 14.1964 8.49492C14.5494 8.58543 14.8254 8.39988 14.8888 8.04237C14.9883 7.47216 15.0924 6.90647 15.1965 6.34079C15.2372 6.24123 15.201 6.20502 15.0969 6.23218C14.7213 6.2367 14.3412 6.31816 13.9656 6.2186C13.685 6.14167 13.4316 6.00138 13.4542 5.69365C13.4768 5.39496 13.7529 5.30898 14.0199 5.2954C14.4996 5.26825 14.9657 5.2773 15.4092 5.53978C15.812 5.77963 16.0201 5.68007 16.1604 5.22752C16.269 4.88359 16.3234 4.52155 16.4003 4.16856C16.4591 3.89703 16.2555 3.76127 16.0926 3.63455C15.907 3.49426 15.6762 3.40828 15.4726 3.28609C15.2282 3.14128 15.0562 3.0915 15.0653 3.48521C15.0698 3.68886 14.925 3.62098 14.839 3.54857C14.6308 3.37208 14.4045 3.30419 14.1059 3.46711C14.21 3.25441 14.3095 3.1277 14.4905 3.10055C14.581 3.08697 14.667 3.06887 14.6399 2.95573C14.6082 2.83354 14.5041 2.82449 14.4 2.84712C14.3457 2.8607 14.2914 2.88332 14.2462 2.915C13.8343 3.20011 13.3546 3.29062 12.893 3.42638C12.8252 3.3585 12.884 3.29967 12.9157 3.29062C13.6578 2.99646 14.3367 2.39457 15.2237 2.82449C15.3142 2.86975 15.4092 2.91953 15.5359 2.8607C15.631 2.81997 15.7712 2.78376 15.7984 2.99646C15.812 3.10507 15.9704 3.15938 16.0926 3.20011C16.2962 3.26346 16.5179 3.27704 16.622 3.08697C16.7397 2.87427 16.5632 2.69778 16.3958 2.60727C16.1831 2.48961 15.993 2.35837 15.8527 2.16377L15.8436 2.1502C16.1831 2.12757 16.0066 1.97823 15.9025 1.87867C15.2734 1.28131 14.5765 1.05503 13.7031 1.32656C13.2958 1.45327 12.9247 1.65239 12.6939 2.03253C12.6487 2.10494 12.5355 2.19093 12.6487 2.28596C12.7346 2.35384 12.8025 2.26786 12.8704 2.22713C13.3049 1.9556 13.7348 1.68407 14.2959 1.83794C14.3864 1.86509 14.5177 1.74743 14.6308 1.69312C14.6353 1.85152 14.6942 1.92392 14.8526 1.82889C14.0516 1.88772 13.332 2.16377 12.626 2.54844C12.1916 2.78376 11.7843 3.39018 11.9291 4.01922C11.9653 4.01017 12.0241 4.01469 12.0377 3.99207C12.1147 3.8744 12.1916 3.70696 12.3455 3.76579C12.4767 3.81557 12.4043 3.98754 12.3907 4.1052C12.359 4.44009 12.4269 4.70709 12.6939 4.95147C12.9247 5.16417 13.1872 5.43569 12.7844 5.757C12.7075 5.81583 12.7392 5.94707 12.7709 6.03758C13.0062 6.6983 12.8071 7.36355 12.7075 8.00164C12.6306 8.48134 12.0468 8.67141 11.6893 8.98819C12.0241 9.2552 12.359 9.5765 12.6532 9.89781C13.1962 10.4997 13.8479 10.7079 14.5991 10.8255C15.8708 11.0247 17.1379 11.2736 18.3281 11.803C18.8214 12.0203 18.93 11.9569 18.9391 11.4229C18.9617 10.3187 19.8351 9.92044 20.5999 9.40906C20.5637 9.63986 20.5185 9.87066 20.4958 10.1015C20.4461 10.5585 20.5999 10.735 21.0615 10.7305C21.8263 10.726 22.564 10.5404 23.2926 10.3323C24.3153 10.0426 25.3155 9.66249 26.3654 9.46337C26.5057 9.43622 26.646 9.39549 26.7093 9.25067C27.0352 8.48134 27.2705 7.68033 27.4877 6.87932C27.5058 6.82049 27.5103 6.73903 27.3881 6.69378C27.2388 7.04676 27.1483 7.4269 26.9311 7.74369C26.655 8.14645 26.2341 8.34558 25.7861 8.44966C24.4421 8.75287 23.1025 9.12396 21.7041 8.94294C21.1249 8.866 20.532 8.866 19.9664 8.70309C19.9528 8.67593 19.9528 8.65331 19.9664 8.62615C20.6723 8.599 21.3738 8.63973 22.0707 8.78002C22.6002 8.88411 23.098 8.65783 23.6139 8.60805C24.3923 8.53564 25.1933 8.48586 25.8993 8.09667C26.6505 7.68033 27.094 6.99246 27.3972 6.2186C27.4696 6.02853 27.542 5.92445 27.7321 5.83846C28.2706 5.60314 28.791 5.33161 29.316 5.07818C29.5196 4.97862 29.6328 4.86548 29.6418 4.60301C29.6645 3.88798 29.7278 3.17748 29.7233 2.44888C28.9947 3.27704 28.7458 4.37673 28.0308 5.27278C27.9674 4.87453 28.1394 4.59848 28.3023 4.36768C28.5874 3.96491 28.7141 3.48069 29.0083 3.10055C29.2888 2.73398 29.3341 2.36289 29.3658 1.92392C29.4337 0.969047 30.2935 0.353582 31.2257 1.00073C31.9408 1.49853 32.0041 1.65692 31.6647 2.39457C31.5697 2.60274 31.4022 2.69325 31.2303 2.75209C30.7958 2.84712 30.5469 3.11412 30.4564 3.57572C30.3885 3.92871 30.2347 4.26812 30.108 4.64826C30.5877 4.72067 30.9859 4.48082 31.4113 4.40388C31.8367 4.32695 32.253 4.17761 32.692 4.17761C32.7011 4.21834 32.7192 4.25002 32.7101 4.26359C32.2711 5.01482 32.4205 5.84299 32.4069 6.64852C32.3933 7.82062 32.3797 8.98819 32.3481 10.1603C32.339 10.4544 32.425 10.5495 32.7282 10.5359C33.1762 10.5133 33.6288 10.5042 34.0768 10.6083C34.2578 10.649 34.4117 10.6581 34.3031 10.3639C34.113 9.84351 33.9818 9.3095 33.6876 8.82528C33.5337 8.57185 33.4749 8.24601 33.4161 7.94733C33.2984 7.33187 32.8187 6.85217 32.787 6.20502C33.2532 6.58064 33.2758 7.178 33.493 7.67128C33.9184 8.62615 34.3076 9.59913 34.7013 10.5676C34.7873 10.7803 35 10.812 35.1584 10.916C35.2534 10.9794 35.3666 11.002 35.3711 11.1378C35.3711 11.3052 35.2353 11.3143 35.1222 11.3731C34.7104 11.5858 34.2533 11.6175 33.8143 11.6673C32.778 11.7895 31.7371 11.8573 30.7053 11.6311C30.5696 11.5994 30.4293 11.5677 30.3071 11.5044C30.0401 11.3595 29.7233 11.2193 30.1261 10.8663C30.212 10.7893 30.2392 10.6445 30.2935 10.5314C30.3207 10.5223 30.3478 10.5178 30.375 10.5178C30.384 10.5766 30.3976 10.6355 30.4066 10.6943C30.3885 10.7577 30.4066 10.7758 30.47 10.7667ZM11.9291 30.8055C12.6713 29.9819 13.4587 29.1945 14.1511 28.3256C15.3006 26.8819 16.4048 25.4021 17.4592 23.8815C17.767 23.438 18.1381 23.0353 18.4005 22.5556C18.4639 22.4379 18.5861 22.4017 18.6947 22.3157C18.74 22.5058 18.7083 22.6868 18.6042 22.809C18.1562 23.3113 17.9616 23.9585 17.6086 24.5196C17.1244 25.289 16.6763 26.0854 16.2193 26.8729C15.6219 27.9047 14.9748 28.9048 14.3683 29.9366C13.694 31.0816 12.8161 32.1179 12.5763 33.4801C12.5717 33.5118 12.5084 33.5344 12.4993 33.5706C12.3093 34.0955 12.0966 34.6114 11.9382 35.1455C11.8386 35.4758 12.169 35.5663 12.3771 35.6704C12.531 35.7519 12.7482 35.9012 12.9021 35.6614C13.0605 35.417 13.2868 35.2224 13.4497 34.9871C14.0923 34.0729 14.8435 33.2448 15.4364 32.2989C15.6038 32.0319 15.8301 31.8056 16.0292 31.5567C16.0609 31.5794 16.0926 31.602 16.1242 31.6201C15.3096 33.1859 14.1783 34.5571 13.2732 36.0822C13.5176 36.227 13.7303 36.3673 13.952 36.4805C14.1013 36.5574 14.2688 36.6027 14.391 36.399C14.6761 35.9238 15.0155 35.4849 15.2915 34.9961C15.726 34.2223 16.0292 33.3941 16.4048 32.5976C17.0022 31.335 17.5 30.0226 18.0159 28.7238C18.3281 27.9318 18.5906 27.1173 18.9119 26.2122C18.9798 26.5289 18.9662 26.7235 18.9164 26.9272C18.7581 27.5291 18.6585 28.14 18.4639 28.7374C18.12 29.7918 17.9706 30.9096 17.595 31.964C17.3733 32.584 17.2782 33.2493 17.0338 33.8557C16.8483 34.3263 16.7623 34.8015 16.6492 35.2993C16.9479 35.2767 17.1787 35.1998 17.4049 35.0866C18.0792 34.7517 18.7535 34.4123 19.4324 34.091C19.9845 33.8331 20.2741 33.5072 20.2469 32.8148C20.1836 31.1087 20.2696 29.3981 20.2107 27.6965C20.1655 26.357 20.2831 25.0084 19.9799 23.6779C19.7401 22.6144 19.4867 21.5554 19.0205 20.5734C18.6947 19.8855 18.1019 19.3968 17.233 19.9444C17.0791 20.0394 16.9071 20.1028 16.7352 20.1661C16.6628 20.1933 16.5587 20.2431 16.5044 20.1525C16.4772 20.1073 16.5044 20.0123 16.536 19.9534C16.6809 19.7 16.7985 19.4285 17.0293 19.2339C17.0927 19.1796 17.1108 19.1162 17.0972 19.0529C17.0791 18.9533 16.9841 18.9986 16.9252 18.9895C15.7034 18.8266 14.581 18.374 13.4949 17.8129C13.0695 17.5957 12.8387 17.2653 12.7482 16.8127C12.6984 16.5503 12.6939 16.2606 12.5717 16.0344C12.3138 15.5547 12.35 15.0659 12.359 14.5455C12.6125 14.6677 12.617 14.6631 12.6713 14.7718C13.1555 15.7357 13.8208 16.5684 14.4996 17.4011C14.6806 17.6228 14.8978 17.7178 15.1558 17.6952C15.9342 17.6273 16.708 17.5368 17.4819 17.4508C15.4907 16.6453 13.9701 15.1836 12.2595 13.8667C12.531 13.7988 12.6532 13.8893 12.7844 13.9707C13.4044 14.3509 14.0108 14.7537 14.6535 15.0976C14.9793 15.2741 15.2418 15.5773 15.6355 15.6271C15.6717 15.6814 15.735 15.7447 15.7848 15.695C15.8572 15.618 15.7486 15.5999 15.7079 15.5592C15.1331 15.1293 14.4996 14.7763 13.9792 14.274C14.1375 14.2287 14.2778 14.2649 14.4227 14.3418C15.1965 14.731 15.9704 15.1157 16.7442 15.5004C16.8936 15.5773 17.0429 15.6814 17.2692 15.5637C17.2058 15.5004 17.1741 15.4551 17.1334 15.4234C16.4139 14.9347 15.8572 14.2694 15.2237 13.6856C15.0426 13.5182 14.9205 13.2919 15.2508 13.1562C15.9206 12.8846 16.9795 12.7624 17.4049 13.7761C17.4909 13.9798 17.5407 14.2287 17.7715 14.3554C17.9299 14.1653 17.7489 13.9526 17.8937 13.7309C18.2467 14.4866 18.2105 15.3148 18.5318 16.0479C18.7671 15.2967 18.9572 14.5545 19.0432 13.7264C18.844 13.8667 18.8259 14.0748 18.6359 14.1337C18.5544 13.8576 18.663 13.6042 18.6856 13.3508C18.7716 12.4773 18.7038 12.3189 17.8575 12.0881C16.5994 11.7397 15.3413 11.3686 14.0606 11.1468C13.1374 10.9885 12.4541 10.6038 11.8884 9.87971C11.6938 9.62629 11.4811 9.33213 11.0919 9.14658C11.2277 9.91592 11.4313 10.6083 11.7526 11.2283C12.273 12.242 11.7979 13.0883 11.0557 13.654C11.024 13.6811 10.9516 13.6585 10.8973 13.6585C10.8973 13.5725 10.9426 13.5227 10.9969 13.4548C11.3317 13.0249 11.7119 12.6086 11.5761 11.9886C11.3861 11.1378 11.2684 10.2644 10.8566 9.47242C10.7661 9.29593 10.6891 9.30045 10.5488 9.35928C10.1596 9.51315 9.75236 9.63986 9.38127 9.82541C8.88347 10.0743 8.50333 10.4273 8.38114 11.0292C8.2137 11.8709 8.13224 12.7353 7.84713 13.5544C7.54845 14.4007 7.41268 15.2967 7.10043 16.1475C6.80627 16.9576 6.44423 17.7314 6.08672 18.5143C5.85592 19.0167 5.57987 19.5145 5.44863 20.0439C5.24951 20.8585 5.1771 21.7048 5.01871 22.5329C4.88294 23.2525 4.75623 23.9811 4.24938 24.5649C3.95975 24.8998 3.71537 25.2844 3.39406 25.5831C3.16779 25.7913 3.23114 25.9995 3.30355 26.1805C3.41216 26.4475 3.61581 26.6692 3.7561 26.9272C3.93712 27.2575 4.08193 27.1173 4.1996 26.9C4.34441 26.633 4.50733 26.366 4.77433 26.2393C5.18162 26.0447 5.33549 25.7189 5.3898 25.3071C5.4441 24.8907 5.40337 24.4155 5.58892 24.0671C5.92833 23.4335 6.18628 22.7683 6.48949 22.1211C6.95109 21.1346 7.40816 20.1118 7.33575 18.9669C7.33123 18.8854 7.3629 18.7994 7.37648 18.718C7.5575 17.6952 8.11413 16.8263 8.60289 15.9484C8.80653 15.5773 9.01018 15.2198 9.08259 14.817C9.23193 13.9934 9.53514 13.2105 9.7071 12.3914C9.77046 12.0881 9.89717 11.803 10.1053 11.5632C10.1642 11.4953 10.2456 11.4636 10.3316 11.4817C10.404 11.4953 10.3723 11.5722 10.3769 11.622C10.404 12.0881 10.3769 12.5724 10.2366 13.0023C10.0827 13.482 10.0782 13.8893 10.3316 14.3283C10.5624 14.1156 10.5986 13.7671 10.9018 13.6494C10.8023 14.3192 11.1372 14.8713 11.4358 15.4053C12.0151 16.4417 12.6758 17.4327 13.3592 18.537C12.5536 18.3062 12.1871 17.7586 11.7526 17.2427C11.3227 16.7403 11.1869 16.066 10.6665 15.6271C11.6259 18.0618 12.3952 20.5598 13.3411 23.0126C12.4088 22.2614 11.8884 21.1798 11.1055 20.225C11.0647 20.8268 11.3589 21.2432 11.6576 21.6324C12.2006 22.3429 12.7844 23.0217 13.3546 23.7231C13.3094 23.7322 13.2551 23.7639 13.2324 23.7503C12.1328 23.0805 11.4358 21.9899 10.49 21.0169C10.4402 21.483 10.1597 21.7591 9.99673 22.103C9.83834 22.4379 9.91075 22.6959 10.0918 22.9583C10.309 23.2615 10.5262 23.5693 10.7706 23.8499C11.4132 24.5785 12.1599 24.9269 13.16 24.5649C13.6216 24.3974 14.0742 24.1576 14.6489 24.0671C14.2462 24.583 13.7257 24.8138 13.2551 25.0989C13.0107 25.2482 12.7573 25.3976 12.4541 25.4474C11.7662 25.565 11.2141 25.3025 10.7389 24.85C10.4176 24.5423 10.1099 24.2255 9.73426 23.972C9.2093 25.0898 9.25908 29.7737 9.59849 31.5522C12.4541 28.7238 14.7259 25.4293 17.4366 22.4153C17.3733 22.8678 17.0836 23.0986 16.9026 23.3973C16.1604 24.6011 15.3368 25.746 14.5267 26.9C14.1421 27.4476 13.8072 28.0359 13.3682 28.5383C12.9926 28.9682 12.7482 29.4796 12.3771 29.9095C12.1644 30.1539 11.8929 30.4344 11.9246 30.8281C11.9065 30.81 11.8929 30.7965 11.8748 30.7784C11.8658 30.7874 11.8567 30.7965 11.8522 30.8055C11.8839 30.7965 11.9065 30.801 11.9291 30.8055ZM8.58478 33.7607C8.67982 32.575 8.61646 31.5205 8.73865 30.4571C9.02376 28.0088 9.10521 25.5379 9.54871 23.1032C9.689 22.3384 9.85192 21.5735 10.1642 20.8721C10.6122 19.8765 10.8339 18.8583 10.7208 17.7857C10.6394 16.9892 10.5126 16.1928 10.318 15.4144C10.2909 15.3103 10.318 15.179 10.1642 15.1564C10.0148 15.1338 9.96958 15.256 9.92433 15.3465C9.62112 15.9076 9.26361 16.4417 9.0147 17.0345C8.91967 17.2562 8.79296 17.4689 8.67077 17.6816C8.40829 18.1523 7.99195 18.6365 8.07341 19.1841C8.17749 19.8539 7.90144 20.3652 7.64348 20.9083C7.26787 21.7003 6.95561 22.5375 6.46686 23.2525C6.00979 23.9177 5.84687 24.5875 5.82877 25.3614C5.81519 26.0628 5.8876 26.7824 5.57534 27.4567C5.49388 27.6332 5.54366 27.7825 5.78804 27.787C6.41255 27.7961 7.05517 27.9635 7.64348 27.5924C7.71137 27.5517 7.8064 27.5427 7.88786 27.5427C8.10056 27.5427 8.30873 27.6105 8.34493 27.8323C8.39019 28.0902 8.12771 28.1083 7.96932 28.1355C7.51225 28.2124 7.04612 28.2486 6.58905 28.3029C6.02789 28.3708 5.96001 28.4704 6.13197 29.0361C6.25869 29.4434 6.44876 29.8325 6.54832 30.2444C6.72481 30.9549 6.847 31.6744 7.01444 32.3849C7.05065 32.5343 7.0959 32.6836 7.18641 32.8329C7.50319 33.3534 8.14129 33.3036 8.58478 33.7607ZM26.9265 12.3868C27.8724 12.414 28.7594 12.337 29.6418 12.4728C29.936 12.5181 29.8817 12.3823 29.8274 12.1832C29.6147 11.4003 29.1712 10.7169 28.8816 9.97022C28.7865 9.72132 28.7232 9.46337 28.6327 9.20994C28.5783 9.0606 28.4788 8.92484 28.3521 9.13753C28.1665 9.44979 27.8769 9.54483 27.5556 9.61724C27.37 9.65796 27.1935 9.71227 27.1438 9.97022C26.999 10.7441 26.7998 11.5089 26.6776 12.2873C26.646 12.4954 26.5826 12.7896 26.8496 12.9797C27.7004 13.5861 28.61 13.6494 29.5558 13.2648C29.764 13.1788 30.1713 13.1607 30.1034 12.8665C30.0446 12.6222 29.6645 12.6493 29.402 12.6357C28.7005 12.6086 27.9946 12.5769 27.2931 12.5588C27.1573 12.5588 27.0578 12.5135 26.9265 12.3868ZM16.1831 5.91087C16.1966 6.53991 16.0699 7.13275 16.622 7.66223C17.242 8.25959 17.8892 8.64426 18.7445 8.67141C18.8983 8.67594 19.1291 8.78907 19.1835 8.5628C19.2513 8.27317 19.5274 8.02879 19.274 7.64865C18.8214 6.96983 18.0883 6.7164 17.4321 6.23218C17.4502 6.6802 17.7534 7.00151 17.6584 7.3726C16.7578 7.29566 16.5179 6.56254 16.1831 5.91087ZM5.18615 28.5654C4.84674 28.7283 4.76075 28.9184 4.99155 29.1854C5.02776 29.2261 5.03681 29.2895 5.05039 29.3438C5.30834 30.2489 5.56629 31.154 5.81519 32.0636C5.86045 32.2265 5.98263 32.4347 6.08672 32.3849C6.48044 32.1948 6.49401 32.6202 6.70219 32.7107C6.73386 32.7243 6.77912 32.7153 6.81532 32.7198C6.86058 32.5388 6.81985 32.3804 6.79722 32.2129C6.69766 31.421 6.28584 30.7241 6.11387 29.9502C6.03694 29.5972 5.95548 29.2397 5.84687 28.8912C5.76089 28.6061 5.74278 28.6107 5.38075 28.5066C5.50293 28.855 5.50293 29.199 5.6749 29.5429C5.81972 29.8325 5.91475 30.2127 5.87855 30.6517C5.41242 29.9774 5.43958 29.2352 5.18615 28.5654ZM11.9698 4.66636C11.6395 5.16417 11.3091 5.68912 10.9516 6.2005C10.8475 6.34531 10.7299 6.48108 10.8656 6.63494C11.196 7.01961 11.4675 7.47668 11.9653 7.68486C12.2142 7.78894 12.3862 7.66675 12.4269 7.4269C12.4586 7.25494 12.3952 7.06487 12.3907 6.88385C12.3726 6.11452 12.0604 5.39496 11.9698 4.66636ZM30.6555 11.0518C30.9904 11.3414 31.3434 11.4546 31.7236 11.5089C32.4703 11.6175 33.2079 11.5813 33.9275 11.346C34.0361 11.3098 34.1899 11.2645 34.1854 11.1061C34.1809 10.993 34.0723 10.9568 33.9682 10.9477C32.864 10.8663 31.7552 10.6898 30.6555 11.0518ZM16.708 2.58917C16.88 1.85604 16.2057 1.06408 15.6536 0.896639C14.8797 0.66584 14.0561 0.516499 13.2777 0.950945C12.9157 1.15459 12.5627 1.38539 12.2323 1.63882C11.9065 1.89224 11.8431 2.27238 11.9789 2.69778C12.3002 1.6705 13.0967 1.11839 14.1013 0.9962C15.3051 0.851385 16.3007 1.27225 16.708 2.58917ZM30.5334 1.85152C30.4247 1.54831 30.5107 1.30846 30.4836 1.07313C30.4655 0.887589 30.4247 0.815181 30.2301 0.950945C29.6961 1.32656 29.6418 1.43517 29.7595 2.02801C30.0899 1.77911 30.565 1.81984 30.9995 2.13209C31.099 2.2045 31.2212 2.3991 31.3389 2.21355C31.4701 2.01443 31.7417 1.80626 31.6285 1.57546C31.5561 1.43065 31.2212 1.44875 31.1126 1.21795C31.0176 1.34466 30.9633 1.31298 30.9542 1.17269C30.9452 1.02788 30.8592 1.02335 30.7506 1.03693C30.5922 1.05503 30.651 1.17722 30.6374 1.2632C30.6148 1.4397 30.6917 1.62524 30.5334 1.85152ZM28.9404 6.11904C28.6372 6.33174 28.2118 6.30911 27.8859 6.54444C27.8 6.60779 27.7638 6.68473 27.809 6.79786C27.9584 7.18705 28.0986 7.58077 28.2389 7.97449C28.2706 8.06047 28.3113 8.12383 28.4154 8.1193C28.5105 8.11478 28.5105 8.03332 28.5331 7.96996C28.7186 7.43143 28.9087 6.8929 29.0943 6.34984C29.1259 6.24123 29.1576 6.11452 28.9404 6.11904ZM27.3157 8.89316C27.3746 9.02892 27.2388 9.24615 27.4062 9.23257C27.6551 9.20994 27.981 9.28235 28.1213 8.93389C28.2344 8.65331 28.0217 7.44953 27.7954 7.25041C27.6642 7.13727 27.6099 7.19158 27.5873 7.34545C27.4968 7.87493 27.4017 8.39536 27.3157 8.89316ZM4.0412 24.2888C3.9869 24.0354 3.93259 23.7503 3.72442 23.524C3.61581 23.4064 3.49362 23.3837 3.35333 23.4652C3.10443 23.6145 3.09538 23.877 3.14516 24.0942C3.20852 24.3612 3.07275 24.7278 3.45289 24.8726C3.70632 24.9677 4.02763 24.669 4.0412 24.2888ZM16.6356 4.04185C16.3279 4.67541 16.6356 5.06913 17.0927 5.40854C17.2284 5.5081 17.3144 5.78868 17.4954 5.67554C17.6719 5.56693 17.6086 5.29088 17.6086 5.08271C17.6086 4.94242 17.5135 4.84738 17.4276 4.7614C17.1696 4.51702 16.9026 4.2817 16.6356 4.04185ZM30.9406 2.39457C30.5741 1.9918 30.1894 1.9556 30.1034 2.27238C29.9541 2.83807 30.1442 3.44448 29.9134 4.01469C30.3885 3.66171 30.1804 2.91953 30.8547 2.6661C30.7279 2.66158 30.6827 2.65705 30.642 2.65705C30.4881 2.65252 30.2754 2.6661 30.298 2.45793C30.3207 2.21355 30.5153 2.4534 30.6284 2.40362C30.6963 2.36742 30.7913 2.39457 30.9406 2.39457ZM26.7727 10.3639C26.3971 11.0066 26.3835 11.6537 26.0441 12.1741C25.9762 12.2782 25.854 12.4819 26.0486 12.5497C26.2296 12.6131 26.4649 12.5543 26.5057 12.3008C26.6007 11.6899 26.6731 11.0835 26.7727 10.3639ZM4.72908 27.8549C4.9825 27.7961 5.27213 27.8142 5.19973 27.511C5.14542 27.2802 5.12279 26.9136 4.82864 26.8865C4.53901 26.8593 4.43492 27.1444 4.4485 27.4295C4.46207 27.6513 4.5028 27.8413 4.72908 27.8549ZM12.5672 2.3991C12.6396 2.33122 12.5717 2.31764 12.5627 2.28596C12.5265 2.29954 12.4857 2.29954 12.4586 2.32216C12.4043 2.36289 12.4631 2.40815 12.4812 2.41267C12.5129 2.42173 12.5536 2.3991 12.5672 2.3991ZM17.319 15.6633C17.3099 15.6452 17.3009 15.6271 17.2918 15.609C17.2828 15.618 17.2647 15.6271 17.2692 15.6361C17.2737 15.6542 17.2873 15.6723 17.2918 15.6904C17.3009 15.6859 17.3054 15.6768 17.319 15.6633Z" fill="white" stroke="white" stroke-width="0.113137" stroke-miterlimit="10"/>
</svg>
