<svg width="48" height="49" viewBox="0 0 48 49" fill="none"
    xmlns="http://www.w3.org/2000/svg">
    <rect width="47.9998" height="48.1406" rx="23.9999" fill="white" fill-opacity="0.9"/>
    <path d="M33.9194 14.0945C32.6295 12.7915 31.093 11.7584 29.3996 11.0554C27.7061 10.3525 25.8897 9.9937 24.0562 10.0001C16.3738 10.0001 10.1126 16.2613 10.1126 23.9437C10.1126 26.406 10.7598 28.7979 11.9698 30.9085L10 38.1406L17.3869 36.1989C19.4271 37.3104 21.7205 37.9014 24.0562 37.9014C31.7385 37.9014 37.9998 31.6401 37.9998 23.9578C37.9998 20.2292 36.5506 16.7257 33.9194 14.0945ZM24.0562 35.5376C21.9738 35.5376 19.9336 34.9748 18.1467 33.9195L17.7246 33.6662L13.3346 34.82L14.5025 30.5427L14.2211 30.1065C13.0641 28.259 12.4498 26.1235 12.4482 23.9437C12.4482 17.5558 17.6542 12.3498 24.0421 12.3498C27.1376 12.3498 30.0501 13.5599 32.231 15.7548C33.3109 16.8297 34.1666 18.1083 34.7487 19.5164C35.3308 20.9245 35.6276 22.4341 35.6219 23.9578C35.6501 30.3457 30.4441 35.5376 24.0562 35.5376ZM30.4159 26.8703C30.0642 26.7015 28.3476 25.8573 28.0381 25.7306C27.7144 25.6181 27.4893 25.5618 27.2501 25.8995C27.0109 26.2512 26.3496 27.0392 26.1526 27.2643C25.9557 27.5035 25.7446 27.5316 25.3929 27.3487C25.0411 27.1799 23.9155 26.8 22.5929 25.6181C21.5517 24.6894 20.8622 23.5497 20.6512 23.198C20.4542 22.8462 20.623 22.6633 20.806 22.4804C20.9607 22.3256 21.1577 22.0724 21.3266 21.8754C21.4954 21.6784 21.5657 21.5236 21.6783 21.2985C21.7909 21.0593 21.7346 20.8623 21.6502 20.6935C21.5657 20.5246 20.8622 18.8081 20.5808 18.1045C20.2994 17.4292 20.0039 17.5136 19.7929 17.4995H19.1175C18.8783 17.4995 18.5125 17.5839 18.1889 17.9357C17.8793 18.2875 16.9788 19.1317 16.9788 20.8482C16.9788 22.5648 18.2311 24.2251 18.3999 24.4502C18.5688 24.6894 20.8622 28.207 24.3517 29.7125C25.1818 30.0783 25.829 30.2894 26.3356 30.4442C27.1657 30.7115 27.9255 30.6693 28.5305 30.5849C29.2059 30.4864 30.5988 29.7406 30.8803 28.9246C31.1757 28.1085 31.1757 27.4191 31.0772 27.2643C30.9787 27.1095 30.7677 27.0392 30.4159 26.8703Z" fill="#282E3F"/>
    <rect x="0.5" y="0.5" width="46.9998" height="47.1406" rx="23.4999" stroke="#282E3F" stroke-opacity="0.1"/>
</svg>
