<svg width="48" height="49" viewBox="0 0 48 49" fill="none"
    xmlns="http://www.w3.org/2000/svg">
    <rect y="0.140625" width="48" height="48" rx="24" fill="#282E3F" fill-opacity="0.9"/>
    <path d="M33.9197 14.1648C32.6297 12.8618 31.0932 11.8287 29.3998 11.1257C27.7064 10.4228 25.8899 10.064 24.0564 10.0704C16.3741 10.0704 10.1128 16.3317 10.1128 24.014C10.1128 26.4763 10.76 28.8683 11.9701 30.9788L10.0002 38.2109L17.3871 36.2692C19.4273 37.3808 21.7208 37.9717 24.0564 37.9717C31.7388 37.9717 38 31.7104 38 24.0281C38 20.2995 36.5508 16.796 33.9197 14.1648ZM24.0564 35.6079C21.974 35.6079 19.9338 35.0451 18.1469 33.9898L17.7248 33.7366L13.3349 34.8903L14.5027 30.613L14.2213 30.1768C13.0644 28.3293 12.4501 26.1938 12.4485 24.014C12.4485 17.6261 17.6545 12.4201 24.0424 12.4201C27.1378 12.4201 30.0504 13.6302 32.2312 15.8251C33.3111 16.9 34.1669 18.1786 34.749 19.5867C35.331 20.9948 35.6278 22.5044 35.6222 24.0281C35.6503 30.416 30.4443 35.6079 24.0564 35.6079ZM30.4162 26.9406C30.0644 26.7718 28.3479 25.9276 28.0383 25.8009C27.7147 25.6884 27.4896 25.6321 27.2504 25.9698C27.0112 26.3215 26.3499 27.1095 26.1529 27.3346C25.9559 27.5738 25.7449 27.6019 25.3931 27.419C25.0413 27.2502 23.9157 26.8703 22.5931 25.6884C21.5519 24.7597 20.8625 23.62 20.6514 23.2683C20.4544 22.9165 20.6233 22.7336 20.8062 22.5507C20.961 22.3959 21.158 22.1427 21.3268 21.9457C21.4956 21.7487 21.566 21.5939 21.6786 21.3688C21.7911 21.1296 21.7348 20.9326 21.6504 20.7638C21.566 20.5949 20.8625 18.8784 20.5811 18.1749C20.2997 17.4995 20.0042 17.5839 19.7931 17.5698H19.1178C18.8786 17.5698 18.5127 17.6543 18.1891 18.006C17.8796 18.3578 16.9791 19.202 16.9791 20.9186C16.9791 22.6351 18.2313 24.2954 18.4002 24.5205C18.569 24.7597 20.8625 28.2773 24.3519 29.7828C25.182 30.1486 25.8293 30.3597 26.3358 30.5145C27.1659 30.7818 27.9257 30.7396 28.5308 30.6552C29.2061 30.5567 30.5991 29.811 30.8805 28.9949C31.176 28.1788 31.176 27.4894 31.0775 27.3346C30.979 27.1798 30.7679 27.1095 30.4162 26.9406Z" fill="white"/>
    <rect x="0.5" y="0.640625" width="47" height="47" rx="23.5" stroke="#282E3F" stroke-opacity="0.1"/>
</svg>
