<svg width="241" height="86" viewBox="0 0 241 86" fill="none"
    xmlns="http://www.w3.org/2000/svg">
    <g clip-path="url(#clip0_318_966)">
        <path d="M70.6083 24.0458C71.6045 23.92 72.6113 23.7836 73.6075 23.6578C73.9956 23.6159 74.1633 23.4481 74.1633 23.0286C74.1529 19.7462 74.1529 16.4533 74.1529 13.2653C73.209 15.9289 72.2128 18.708 71.2165 21.4975C71.1117 21.466 71.0068 21.4241 70.9019 21.3926C72.0764 17.89 73.2405 14.3769 74.457 10.7484C72.433 11.1574 70.7236 12.0068 68.9513 12.657C68.6472 12.7724 68.5214 13.0555 68.3955 13.3177C67.4937 15.0795 67.0742 17.0091 66.424 18.8548C66.2877 19.2533 66.4659 19.6203 66.6023 19.9874C67.3573 22.1162 68.3641 24.1297 69.203 26.2271C69.5176 27.0136 69.8113 27.905 70.6083 28.5552C71.269 29.1005 70.5139 29.6983 70 29.9814C68.8045 30.6631 67.4937 31.0721 66.1094 31.1664C64.2113 31.2923 62.3341 31.114 60.5094 30.5372C60.0794 30.4009 59.6285 30.2541 59.3034 29.9185C58.9888 29.5934 58.758 29.1739 59.167 28.8279C59.618 28.4503 59.7333 27.9574 59.8172 27.4541C60.0794 25.9125 60.9498 24.5911 61.2854 23.0705C61.4217 22.4413 61.4742 22.2211 60.7191 22.4413C58.6951 23.0391 56.6712 23.6263 54.6262 24.1507C53.1475 24.5282 51.6374 24.7589 50.1378 25.0945C48.5333 25.4511 47.2539 26.3634 46.1947 27.5694C45.4397 28.4294 45.4711 29.5829 45.3453 30.6316C45.0621 32.9492 44.4015 35.1829 43.9925 37.4691C43.6779 39.2309 43.4157 40.9927 43.164 42.765C43.0801 43.3522 43.0696 43.9919 43.531 44.4324C45.1355 45.953 45.4082 48.0294 45.985 50.001C46.8449 52.9583 47.2854 56.01 48.0928 58.9673C48.9108 61.9561 48.9947 65.0602 49.8442 68.0175C50.4 69.9576 50.6307 71.9396 50.9033 73.9111C51.0292 74.792 51.3648 74.8025 52.0254 74.4565C53.8607 73.4917 55.7168 72.5583 57.5521 71.5935C59.6809 70.4819 61.7783 69.3179 63.9176 68.2377C64.4105 67.986 64.5573 67.7134 64.5573 67.1995C64.4839 59.8796 64.6307 52.5493 64.4 45.2294C64.2847 41.58 64.2532 37.92 64.5363 34.2076C64.851 34.365 64.8929 34.5957 64.8929 34.7949C65.0502 39.4197 66.0884 43.971 66.3086 48.5852C66.5603 53.8182 66.2772 59.0512 66.3086 64.2841C66.3191 65.3328 66.3191 66.3815 66.4764 67.4093C66.7386 69.0767 65.4172 69.4857 64.3686 70.0415C61.6524 71.4782 58.8839 72.8415 56.1468 74.2362C52.2771 76.2078 48.4179 78.1793 44.5588 80.1718C41.9685 81.5037 39.3887 82.8775 36.7984 84.2198C35.8861 84.7022 34.9318 85.1217 34.0404 85.646C33.3692 86.0445 32.761 85.8977 32.2052 85.5726C28.4404 83.4018 24.5182 81.5456 20.68 79.5112C15.7302 76.8894 10.7279 74.3726 5.74665 71.8033C4.19458 70.9958 2.67398 70.1359 1.10094 69.3598C0.335393 68.9823 0.0941941 68.395 0.157116 67.6295C0.387828 64.9238 0.251498 62.2077 0.261985 59.4916C0.272472 56.5553 0.157116 53.6085 0.199063 50.6721C0.220037 48.7845 0.241011 46.8549 0.58708 45.0092C1.2163 41.6324 1.31068 38.2137 1.75113 34.8264C1.7721 34.6796 1.82454 34.5327 2.07622 34.3859C2.07622 35.0571 2.07622 35.7283 2.07622 36.4099C2.07622 45.995 2.08671 55.58 2.08671 65.165C2.08671 65.4587 2.13914 65.7628 2.07622 66.046C1.71967 67.5456 2.39083 68.2797 3.73316 68.9089C6.72193 70.3036 9.61632 71.8872 12.5527 73.3973C12.7834 73.1771 12.6366 72.9673 12.5736 72.7681C11.9759 70.8594 11.3572 68.9613 10.8013 67.0527C10.6231 66.4445 10.3294 66.3081 9.74216 66.3606C8.28448 66.5074 6.81631 66.4759 5.43204 67.0946C5.14889 67.2205 4.72941 67.3254 4.53016 67.0212C4.3414 66.6961 4.60357 66.3606 4.76088 66.0879C5.10694 65.4692 5.72567 65.3748 6.36538 65.3224C7.43504 65.2489 8.51519 65.1441 9.54291 64.798C10.4133 64.5149 10.5077 64.2317 9.7946 63.6654C8.8298 62.9104 8.35789 61.7883 7.58186 60.9074C7.24628 60.5193 6.99459 59.974 7.068 59.4602C7.25676 58.1808 6.79534 57.0167 6.52268 55.8317C6.33391 54.9927 6.44927 54.2062 6.6695 53.4197C6.81631 52.8953 7.13092 52.4654 7.73916 52.4025C8.32643 52.3395 8.74591 52.6437 9.02905 53.1261C9.38561 53.7238 9.7107 54.3321 10.0882 55.0032C10.7594 54.2901 10.8118 53.3987 10.9167 52.5493C11.2942 49.571 11.871 46.6032 12.8253 43.7822C13.3602 42.1882 13.7377 40.3844 15.0695 39.0946C15.4051 38.759 15.4995 38.1612 15.6673 37.6683C16.8313 34.3754 17.5864 30.9777 18.2261 27.538C18.4673 26.2271 18.9392 24.9372 19.2958 23.6263C19.6628 22.284 20.7744 21.6548 21.9594 21.1409C23.6793 20.3964 25.5564 20.0818 27.1609 19.0121C27.8531 18.5507 27.7377 18.1941 27.3183 17.848C26.4688 17.1349 26.0074 16.1177 25.2104 15.3731C24.6546 14.8593 24.7804 13.2128 25.3048 12.5836C26.4478 11.2203 27.14 9.74165 26.9617 7.89595C26.8673 6.88921 27.0141 5.87198 26.9932 4.85475C26.9722 3.97384 27.3392 3.25025 27.916 2.71541C28.9332 1.77159 30.0344 0.901175 31.3347 0.355855C31.5759 0.250986 31.8486 0.156604 32.0898 0.188064C33.1909 0.334881 34.2816 0.230012 35.3827 0.156604C36.6411 0.0727083 37.4696 1.08994 38.1932 1.87646C39.3677 3.14538 40.0913 4.62403 39.2524 6.50119C38.9273 7.22479 38.9168 8.13715 39.8291 8.80832C40.8044 9.52143 41.591 10.4757 41.3393 11.8286C41.119 13.0241 41.7483 13.7162 42.7131 14.1042C43.594 14.4608 44.1917 15.1529 44.8419 15.7611C45.555 16.4218 45.2299 17.4181 45.2509 18.2885C45.2614 18.6555 44.7895 19.0226 45.3033 19.4211C45.4921 19.5679 45.0831 19.6623 44.9887 19.6623C41.9999 19.8406 39.0217 20.4488 36.0119 19.9559C35.7812 19.914 35.6344 19.872 35.6763 19.6098C35.7602 19.0331 35.7183 18.4039 35.9385 17.8795C36.5677 16.3904 36.6306 14.8068 36.8404 13.2443C36.8509 13.2023 36.7879 13.1499 36.746 13.066C35.6134 13.6428 35.3827 14.6915 35.2569 15.8031C35.1939 16.3904 35.1415 16.9671 35.0681 17.5544C34.8583 19.1694 33.2224 19.9035 31.8696 19.0016C30.9782 18.4143 30.1497 16.705 30.2126 15.5724C30.8943 15.887 31.1145 16.5267 31.3662 17.1454C31.6703 17.8795 32.0374 18.5612 32.8973 18.7814C33.7153 18.9911 34.355 18.5612 34.5018 17.7327C34.7325 16.4113 34.9737 15.1005 35.2149 13.7896C35.3093 13.5589 35.2254 13.475 34.9842 13.5379C34.1138 13.5484 33.2329 13.7372 32.3625 13.5065C31.7123 13.3282 31.125 13.0031 31.1774 12.29C31.2299 11.5978 31.8696 11.3986 32.4883 11.3671C33.5999 11.3042 34.6801 11.3252 35.7078 11.9334C36.6411 12.4892 37.1235 12.2585 37.4486 11.2098C37.7003 10.4128 37.8261 9.57386 38.0044 8.75588C38.1408 8.12667 37.6688 7.81206 37.2913 7.51843C36.8614 7.19333 36.3265 6.99408 35.8546 6.71093C35.2883 6.37535 34.8898 6.25999 34.9108 7.17236C34.9213 7.64427 34.5857 7.48696 34.3864 7.31917C33.904 6.91018 33.3797 6.75288 32.6876 7.13041C32.9288 6.63752 33.1595 6.34389 33.5789 6.28097C33.7887 6.24951 33.9879 6.20756 33.925 5.94539C33.8516 5.66224 33.6104 5.64127 33.3692 5.6937C33.2434 5.72516 33.1175 5.7776 33.0127 5.851C32.0583 6.51168 30.9467 6.72142 29.8771 7.03603C29.7198 6.87872 29.8561 6.74239 29.9295 6.72142C31.6494 6.03977 33.2224 4.64501 35.2778 5.64127C35.4876 5.74613 35.7078 5.86149 36.0014 5.72516C36.2217 5.63078 36.5467 5.54688 36.6097 6.03977C36.6411 6.29145 37.0082 6.4173 37.2913 6.51168C37.7632 6.6585 38.2771 6.68996 38.5183 6.24951C38.7909 5.75662 38.382 5.34763 37.9939 5.13789C37.5011 4.86523 37.0606 4.56111 36.7355 4.11017L36.7145 4.07871C37.5011 4.02628 37.0921 3.68021 36.8509 3.4495C35.3932 2.06522 33.7782 1.54088 31.7542 2.17009C30.8104 2.46373 29.9505 2.92515 29.4156 3.80605C29.3108 3.97384 29.0486 4.1731 29.3108 4.39332C29.51 4.55063 29.6673 4.35137 29.8246 4.25699C30.8314 3.62778 31.8276 2.99856 33.128 3.35512C33.3377 3.41804 33.6419 3.14538 33.904 3.01953C33.9145 3.38658 34.0509 3.55437 34.4179 3.33414C32.5617 3.47047 30.8943 4.11017 29.2583 5.00156C28.2516 5.54688 27.3078 6.95213 27.6433 8.40981C27.7272 8.38884 27.8636 8.39933 27.895 8.34689C28.0733 8.07423 28.2516 7.68622 28.6081 7.82255C28.9123 7.9379 28.7445 8.3364 28.713 8.60906C28.6396 9.3851 28.7969 10.0038 29.4156 10.5701C29.9505 11.063 30.5587 11.6922 29.6254 12.4368C29.4471 12.5731 29.5205 12.8772 29.5939 13.087C30.1392 14.6181 29.6778 16.1596 29.4471 17.6383C29.2688 18.7499 27.916 19.1904 27.0875 19.9245C27.8636 20.5432 28.6396 21.2878 29.3213 22.0323C30.5797 23.4271 32.0898 23.9095 33.8306 24.1821C36.7775 24.6436 39.7138 25.2204 42.4719 26.4473C43.6149 26.9507 43.8666 26.8039 43.8876 25.5664C43.94 23.0076 45.964 22.0848 47.7363 20.8997C47.6524 21.4346 47.5475 21.9694 47.4951 22.5042C47.3797 23.5634 47.7363 23.9724 48.806 23.9619C50.5782 23.9514 52.2876 23.5215 53.976 23.0391C56.3461 22.3679 58.6637 21.487 61.0966 21.0256C61.4217 20.9627 61.7468 20.8683 61.8936 20.5327C62.6487 18.7499 63.194 16.8937 63.6974 15.0375C63.7393 14.9012 63.7498 14.7125 63.4667 14.6076C63.1206 15.4256 62.9109 16.3065 62.4075 17.0406C61.7678 17.9739 60.7925 18.4353 59.7543 18.6765C56.6397 19.3791 53.5356 20.2391 50.2951 19.8196C48.9528 19.6413 47.579 19.6413 46.2681 19.2638C46.2367 19.2009 46.2367 19.1484 46.2681 19.0855C47.9041 19.0226 49.5296 19.117 51.1445 19.4421C52.3715 19.6833 53.5251 19.1589 54.7206 19.0436C56.5243 18.8758 58.3805 18.7604 60.0165 17.8585C61.7573 16.8937 62.785 15.2997 63.4877 13.5065C63.6554 13.066 63.8232 12.8248 64.2637 12.6256C65.5116 12.0802 66.7176 11.451 67.9341 10.8638C68.406 10.633 68.6682 10.3709 68.6892 9.76263C68.7416 8.10569 68.8884 6.45925 68.8779 4.77085C67.1895 6.68996 66.6128 9.23828 64.9558 11.3147C64.809 10.3918 65.2075 9.75214 65.585 9.21731C66.2457 8.28397 66.5393 7.16187 67.221 6.28097C67.8712 5.43153 67.9761 4.5716 68.0495 3.55437C68.2068 1.34163 70.1993 -0.0845955 72.3596 1.41503C74.0165 2.5686 74.1633 2.93564 73.3768 4.64501C73.1566 5.12741 72.7686 5.33714 72.3701 5.47347C71.3633 5.6937 70.7866 6.31243 70.5768 7.38209C70.4195 8.20007 70.063 8.98659 69.7693 9.8675C70.8809 10.0353 71.8038 9.47948 72.7896 9.3012C73.7753 9.12292 74.7401 8.77686 75.7574 8.77686C75.7783 8.87124 75.8203 8.94465 75.7993 8.97611C74.7821 10.7169 75.1281 12.636 75.0967 14.5027C75.0652 17.2188 75.0338 19.9245 74.9604 22.6406C74.9394 23.3222 75.1386 23.5424 75.8413 23.511C76.8795 23.4585 77.9282 23.4376 78.9664 23.6788C79.3858 23.7732 79.7424 23.7941 79.4907 23.1125C79.0503 21.9065 78.7461 20.669 78.0645 19.5469C77.7079 18.9597 77.5716 18.2046 77.4353 17.5125C77.1626 16.0862 76.051 14.9746 75.9776 13.475C77.0577 14.3454 77.1102 15.7297 77.6135 16.8728C78.5993 19.0855 79.5012 21.3402 80.4136 23.5844C80.6128 24.0773 81.1057 24.1507 81.4727 24.3919C81.693 24.5387 81.9551 24.5911 81.9656 24.9057C81.9656 25.2938 81.651 25.3147 81.3888 25.4511C80.4345 25.944 79.3753 26.0174 78.3581 26.1327C75.9566 26.4159 73.5446 26.5732 71.1536 26.0488C70.839 25.9754 70.5139 25.902 70.2308 25.7552C69.612 25.4196 68.8779 25.0945 69.8113 24.2765C70.0105 24.0983 70.0734 23.7627 70.1993 23.5005C70.2622 23.4795 70.3251 23.469 70.3881 23.469C70.409 23.6054 70.4405 23.7417 70.4615 23.878C70.4195 24.0248 70.4615 24.0668 70.6083 24.0458ZM27.6433 70.4819C29.3632 68.5733 31.1879 66.7486 32.7924 64.7351C35.4561 61.3898 38.0149 57.9605 40.4584 54.4369C41.1715 53.4092 42.0314 52.4759 42.6396 51.3643C42.7865 51.0916 43.0696 51.0077 43.3213 50.8085C43.4262 51.2489 43.3528 51.6684 43.1116 51.9515C42.0734 53.1156 41.6224 54.6152 40.8044 55.9156C39.6823 57.6984 38.6441 59.5441 37.5849 61.3688C36.2007 63.7598 34.701 66.0774 33.2958 68.4684C31.7332 71.1216 29.6988 73.5231 29.143 76.6797C29.1325 76.7531 28.9857 76.8055 28.9647 76.8894C28.5242 78.1059 28.0314 79.3014 27.6643 80.5389C27.4336 81.3044 28.1992 81.5142 28.6816 81.7554C29.0381 81.9441 29.5415 82.2902 29.898 81.7344C30.2651 81.1681 30.7894 80.7172 31.167 80.1718C32.6561 78.0535 34.3969 76.1344 35.7707 73.9426C36.1587 73.3239 36.6831 72.7995 37.1445 72.2227C37.2179 72.2752 37.2913 72.3276 37.3647 72.3696C35.4771 75.998 32.8553 79.1756 30.758 82.7097C31.3243 83.0453 31.8171 83.3704 32.331 83.6325C32.6771 83.8108 33.0651 83.9157 33.3482 83.4438C34.0089 82.3426 34.7954 81.3254 35.4351 80.1928C36.4419 78.3995 37.1445 76.4804 38.0149 74.6347C39.3992 71.7089 40.5527 68.6677 41.7483 65.6579C42.4719 63.8227 43.0801 61.9351 43.8247 59.8377C43.982 60.5718 43.9505 61.0227 43.8352 61.4946C43.4681 62.8894 43.2374 64.3051 42.7865 65.6894C41.9895 68.1328 41.6434 70.7231 40.773 73.1666C40.2591 74.6033 40.0389 76.1449 39.4726 77.5501C39.0426 78.6407 38.8434 79.7419 38.5812 80.8954C39.2733 80.843 39.8082 80.6647 40.3325 80.4025C41.8951 79.6265 43.4576 78.84 45.0307 78.0954C46.3101 77.4977 46.9812 76.7426 46.9183 75.1381C46.7715 71.1845 46.9707 67.2205 46.8344 63.2774C46.7295 60.1733 47.0022 57.0482 46.2996 53.965C45.7438 51.5006 45.1565 49.0466 44.0764 46.771C43.3213 45.177 41.9475 44.0444 39.934 45.3133C39.5775 45.5335 39.179 45.6803 38.7805 45.8272C38.6127 45.8901 38.3715 46.0054 38.2456 45.7957C38.1827 45.6908 38.2456 45.4706 38.319 45.3343C38.6546 44.747 38.9273 44.1178 39.4621 43.6669C39.6089 43.541 39.6509 43.3942 39.6194 43.2474C39.5775 43.0167 39.3572 43.1215 39.2209 43.1006C36.3894 42.723 33.7887 41.6743 31.2718 40.374C30.2861 39.8706 29.7512 39.105 29.5415 38.0564C29.4261 37.4481 29.4156 36.7769 29.1325 36.2526C28.5347 35.141 28.6186 34.0084 28.6396 32.8024C29.2269 33.0855 29.2374 33.0751 29.3632 33.3267C30.4853 35.5605 32.0269 37.4901 33.5999 39.4197C34.0194 39.9335 34.5228 40.1537 35.1205 40.1013C36.9243 39.944 38.7175 39.7343 40.5108 39.535C35.8966 37.6683 32.3729 34.2811 28.4089 31.2294C29.0381 31.0721 29.3213 31.2818 29.6254 31.4706C31.0621 32.3515 32.4673 33.2848 33.9565 34.0818C34.7115 34.4908 35.3198 35.1934 36.2321 35.3088C36.316 35.4346 36.4628 35.5814 36.5782 35.4661C36.746 35.2878 36.4943 35.2459 36.3999 35.1515C35.0681 34.1552 33.5999 33.3372 32.3939 32.1732C32.761 32.0683 33.0861 32.1522 33.4216 32.3305C35.2149 33.2324 37.0082 34.1238 38.8014 35.0151C39.1475 35.1934 39.4936 35.4346 40.0179 35.162C39.8711 35.0151 39.7977 34.9103 39.7033 34.8369C38.0359 33.7043 36.746 32.1627 35.2778 30.8099C34.8583 30.4219 34.5752 29.8975 35.3407 29.5829C36.8928 28.9537 39.3468 28.6706 40.3325 31.0196C40.5318 31.4915 40.6471 32.0683 41.182 32.3619C41.549 31.9215 41.1295 31.4286 41.4651 30.9148C42.2831 32.6661 42.1992 34.5852 42.9438 36.2841C43.4891 34.5432 43.9295 32.8234 44.1288 30.9043C43.6674 31.2294 43.6254 31.7118 43.185 31.8481C42.9962 31.2084 43.2479 30.6211 43.3003 30.0339C43.4996 28.0099 43.3423 27.6428 41.3812 27.108C38.4658 26.3005 35.5505 25.4406 32.5827 24.9267C30.4434 24.5597 28.8598 23.6683 27.549 21.9904C27.098 21.4031 26.6051 20.7215 25.7033 20.2915C26.0179 22.0743 26.4898 23.6788 27.2344 25.1155C28.4404 27.4646 27.3392 29.4256 25.6194 30.7365C25.546 30.7994 25.3782 30.747 25.2523 30.747C25.2523 30.5477 25.3572 30.4324 25.483 30.2751C26.2591 29.2788 27.14 28.314 26.8254 26.8773C26.3849 24.9057 26.1123 22.8818 25.1579 21.0466C24.9482 20.6376 24.7699 20.6481 24.4448 20.7844C23.543 21.1409 22.5991 21.4346 21.7392 21.8645C20.5856 22.4413 19.7047 23.2593 19.4216 24.6541C19.0336 26.6046 18.8448 28.6076 18.1841 30.5058C17.492 32.4668 17.1774 34.5432 16.4538 36.5148C15.7721 38.3919 14.9332 40.1852 14.1047 41.9994C13.5699 43.1635 12.9302 44.317 12.6261 45.544C12.1646 47.4317 11.9969 49.3927 11.6298 51.3118C11.3152 52.9792 11.0216 54.6676 9.84703 56.0205C9.17587 56.7965 8.60958 57.6879 7.86501 58.38C7.34066 58.8624 7.48748 59.3448 7.65527 59.7643C7.90695 60.383 8.37886 60.8969 8.70396 61.4946C9.12344 62.2602 9.45902 61.9351 9.73168 61.4317C10.0673 60.813 10.4448 60.1942 11.0635 59.9006C12.0073 59.4497 12.3639 58.6946 12.4897 57.7403C12.6156 56.7755 12.5212 55.6744 12.9512 54.8669C13.7377 53.3987 14.3354 51.8571 15.0381 50.3575C16.1077 48.0714 17.1669 45.7013 16.9991 43.0481C16.9886 42.8594 17.062 42.6601 17.0935 42.4713C17.513 40.1013 18.8029 38.0878 19.9355 36.0533C20.4074 35.1934 20.8793 34.365 21.0471 33.4316C21.3931 31.523 22.0958 29.7088 22.4943 27.8106C22.6411 27.108 22.9347 26.4473 23.4171 25.8915C23.5534 25.7342 23.7422 25.6608 23.9415 25.7028C24.1093 25.7342 24.0358 25.9125 24.0463 26.0278C24.1093 27.108 24.0463 28.2301 23.7212 29.2264C23.3647 30.338 23.3542 31.2818 23.9415 32.299C24.4763 31.8061 24.5602 30.9986 25.2628 30.726C25.0321 32.2781 25.8081 33.5575 26.5003 34.7949C27.8426 37.1964 29.3737 39.4931 30.9572 42.0519C29.0905 41.517 28.2411 40.2481 27.2344 39.0526C26.2381 37.8886 25.9235 36.326 24.7175 35.3088C26.9407 40.9507 28.7235 46.7395 30.9153 52.4234C28.755 50.6826 27.549 48.1762 25.7347 45.9635C25.6403 47.3583 26.322 48.323 27.0141 49.2249C28.2726 50.8714 29.6254 52.4444 30.9467 54.0699C30.8419 54.0909 30.716 54.1643 30.6636 54.1328C28.1153 52.5807 26.5003 50.0534 24.3085 47.7987C24.1931 48.8789 23.543 49.5186 23.1654 50.3156C22.7984 51.0916 22.9662 51.6894 23.3857 52.2976C23.889 53.0002 24.3924 53.7133 24.9587 54.3635C26.4478 56.0519 28.1782 56.8594 30.4958 56.0205C31.5655 55.6324 32.6141 55.0766 33.946 54.8669C33.0126 56.0624 31.8067 56.5972 30.716 57.2579C30.1497 57.604 29.5625 57.95 28.8598 58.0654C27.2658 58.3381 25.9864 57.7298 24.8853 56.6811C24.1407 55.968 23.4276 55.2339 22.5572 54.6467C21.3407 57.2369 21.4561 68.0909 22.2426 72.2123C28.8598 65.6579 34.1243 58.0235 40.4059 51.0392C40.2591 52.0879 39.5879 52.6227 39.1685 53.3148C37.4486 56.1043 35.54 58.7575 33.6628 61.4317C32.7715 62.7006 31.9954 64.0639 30.9782 65.228C30.1078 66.2242 29.5415 67.4092 28.6816 68.4055C28.1887 68.9718 27.5595 69.622 27.6329 70.5343C27.5909 70.4924 27.5595 70.4609 27.5175 70.419C27.4965 70.44 27.4756 70.4609 27.4651 70.4819C27.5385 70.4609 27.5909 70.4714 27.6433 70.4819ZM19.8935 77.3299C20.1137 74.5823 19.9669 72.1388 20.2501 69.6744C20.9107 64.001 21.0995 58.2751 22.1272 52.6332C22.4523 50.8609 22.8298 49.0886 23.5534 47.4631C24.5916 45.156 25.1055 42.7964 24.8433 40.311C24.6546 38.4653 24.3609 36.6196 23.91 34.8159C23.8471 34.5747 23.91 34.2706 23.5534 34.2181C23.2074 34.1657 23.1025 34.4488 22.9976 34.6586C22.295 35.959 21.4665 37.1964 20.8898 38.5702C20.6695 39.0841 20.3759 39.577 20.0928 40.0698C19.4845 41.1605 18.5197 42.2826 18.7085 43.5515C18.9497 45.1036 18.31 46.2886 17.7122 47.547C16.8418 49.3822 16.1182 51.3223 14.9856 52.9792C13.9264 54.5208 13.5489 56.0729 13.507 57.8662C13.4755 59.4916 13.6433 61.159 12.9197 62.7216C12.7309 63.1306 12.8463 63.4767 13.4126 63.4871C14.8598 63.5081 16.3489 63.8961 17.7122 63.0362C17.8695 62.9418 18.0898 62.9208 18.2785 62.9208C18.7714 62.9208 19.2538 63.0782 19.3377 63.592C19.4426 64.1898 18.8343 64.2317 18.4673 64.2946C17.4081 64.4729 16.328 64.5568 15.2688 64.6827C13.9684 64.84 13.8111 65.0707 14.2096 66.3815C14.5032 67.3254 14.9437 68.2272 15.1744 69.1815C15.5834 70.828 15.8665 72.4954 16.2545 74.1419C16.3384 74.4879 16.4433 74.834 16.653 75.1801C17.3871 76.3861 18.8658 76.2707 19.8935 77.3299ZM62.397 27.8001C64.5888 27.8631 66.6442 27.6848 68.6892 27.9994C69.3708 28.1043 69.245 27.7897 69.1191 27.3282C68.6263 25.514 67.5985 23.9305 66.9274 22.2001C66.7071 21.6233 66.5603 21.0256 66.3506 20.4383C66.2247 20.0922 65.994 19.7776 65.7004 20.2705C65.2704 20.9941 64.5993 21.2143 63.8547 21.3821C63.4247 21.4765 63.0157 21.6024 62.9004 22.2001C62.5648 23.9934 62.1034 25.7657 61.8202 27.5694C61.7468 28.0518 61.6 28.7335 62.2187 29.1739C64.1903 30.5792 66.2981 30.726 68.4899 29.8346C68.9723 29.6353 69.9161 29.5934 69.7588 28.9117C69.6225 28.3455 68.7416 28.4084 68.1334 28.3769C66.5079 28.314 64.8719 28.2406 63.2465 28.1986C62.9318 28.1986 62.7011 28.0938 62.397 27.8001ZM37.5011 12.7933C37.5325 14.251 37.2389 15.6248 38.5183 16.8518C39.955 18.2361 41.4546 19.1275 43.4367 19.1904C43.7932 19.2009 44.328 19.463 44.4539 18.9387C44.6112 18.2675 45.2509 17.7012 44.6636 16.8203C43.6149 15.2473 41.916 14.66 40.3954 13.5379C40.4374 14.5761 41.14 15.3207 40.9198 16.1806C38.8329 16.0023 38.2771 14.3035 37.5011 12.7933ZM12.0178 65.2909C11.2313 65.6684 11.0321 66.1089 11.5669 66.7276C11.6508 66.822 11.6718 66.9688 11.7032 67.0946C12.301 69.192 12.8987 71.2894 13.4755 73.3973C13.5804 73.7748 13.8635 74.2572 14.1047 74.1419C15.0171 73.7014 15.0485 74.6872 15.5309 74.8969C15.6044 74.9284 15.7092 74.9074 15.7931 74.9179C15.898 74.4984 15.8036 74.1314 15.7512 73.7434C15.5205 71.9081 14.5662 70.2932 14.1676 68.4999C13.9894 67.6819 13.8006 66.8534 13.5489 66.046C13.3497 65.3853 13.3077 65.3958 12.4688 65.1546C12.7519 65.9621 12.7519 66.7591 13.1504 67.5561C13.486 68.2272 13.7062 69.1081 13.6223 70.1254C12.5422 68.5628 12.6051 66.843 12.0178 65.2909ZM27.7377 9.90944C26.9722 11.063 26.2066 12.2795 25.3782 13.4645C25.137 13.8001 24.8643 14.1147 25.1789 14.4713C25.9445 15.3626 26.5737 16.4218 27.7272 16.9042C28.304 17.1454 28.7025 16.8623 28.7969 16.3065C28.8703 15.908 28.7235 15.4675 28.713 15.048C28.6711 13.2653 27.9475 11.5978 27.7377 9.90944ZM71.0382 24.7065C71.8143 25.3777 72.6323 25.6398 73.5132 25.7657C75.2435 26.0174 76.9529 25.9335 78.6203 25.3881C78.872 25.3042 79.2285 25.1994 79.218 24.8323C79.2076 24.5702 78.9559 24.4863 78.7147 24.4653C76.1559 24.2765 73.5866 23.8675 71.0382 24.7065ZM38.7175 5.09595C39.116 3.39706 37.5535 1.56185 36.2741 1.17384C34.4808 0.639002 32.5722 0.292934 30.7684 1.29968C29.9295 1.77159 29.1115 2.30642 28.346 2.89369C27.5909 3.48096 27.4441 4.36186 27.7587 5.34763C28.5033 2.9671 30.349 1.68769 32.6771 1.40455C35.4666 1.06897 37.7737 2.04425 38.7175 5.09595ZM70.7551 3.38658C70.5034 2.68395 70.7027 2.12815 70.6397 1.58283C70.5978 1.15286 70.5034 0.985071 70.0525 1.29968C68.815 2.17009 68.6892 2.42178 68.9618 3.79557C69.7274 3.21879 70.8285 3.31317 71.8352 4.03677C72.066 4.20456 72.3491 4.65549 72.6218 4.22553C72.9259 3.76411 73.5551 3.28171 73.2929 2.74687C73.1251 2.41129 72.3491 2.45324 72.0974 1.91841C71.8772 2.21204 71.7514 2.13863 71.7304 1.81354C71.7094 1.47796 71.5102 1.46747 71.2585 1.49893C70.8914 1.54088 71.0278 1.82402 70.9963 2.02328C70.9439 2.43227 71.1221 2.86223 70.7551 3.38658ZM67.0637 13.2757C66.3611 13.7686 65.3753 13.7162 64.6202 14.2615C64.421 14.4083 64.3371 14.5866 64.442 14.8488C64.788 15.7507 65.1131 16.663 65.4382 17.5754C65.5116 17.7746 65.606 17.9215 65.8472 17.911C66.0674 17.9005 66.0674 17.7117 66.1199 17.5649C66.5498 16.317 66.9903 15.069 67.4203 13.8106C67.4937 13.5589 67.5671 13.2653 67.0637 13.2757ZM63.2989 19.7042C63.4352 20.0188 63.1206 20.5222 63.5086 20.4908C64.0854 20.4383 64.8405 20.6061 65.1656 19.7986C65.4277 19.1484 64.9348 16.3589 64.4105 15.8975C64.1064 15.6353 63.9805 15.7611 63.9281 16.1177C63.7184 17.3447 63.4981 18.5507 63.2989 19.7042ZM9.36464 55.3808C9.23879 54.7935 9.11295 54.1328 8.63055 53.6085C8.37886 53.3358 8.09572 53.2834 7.77062 53.4721C7.19384 53.8182 7.17287 54.4264 7.28822 54.9298C7.43504 55.5485 7.12043 56.398 8.00134 56.7336C8.5886 56.9538 9.33317 56.2617 9.36464 55.3808ZM38.5497 8.46225C37.8366 9.93042 38.5497 10.8428 39.6089 11.6293C39.9235 11.86 40.1228 12.5102 40.5423 12.248C40.9513 11.9963 40.8044 11.3566 40.8044 10.8742C40.8044 10.5491 40.5842 10.3289 40.385 10.1297C39.7872 9.56338 39.1685 9.01806 38.5497 8.46225ZM71.6989 4.64501C70.8495 3.71167 69.9581 3.62778 69.7588 4.36186C69.4128 5.67273 69.8532 7.07797 69.3184 8.39933C70.4195 7.58135 69.9371 5.86149 71.4997 5.27422C71.206 5.26374 71.1012 5.25325 71.0068 5.25325C70.6502 5.24276 70.1573 5.27422 70.2098 4.79182C70.2622 4.22553 70.7131 4.78134 70.9753 4.66598C71.1326 4.58209 71.3529 4.64501 71.6989 4.64501ZM62.0405 23.1125C61.17 24.6016 61.1386 26.1013 60.3521 27.3073C60.1948 27.5485 59.9116 28.0204 60.3626 28.1777C60.782 28.3245 61.3273 28.1882 61.4217 27.6009C61.642 26.1851 61.8097 24.7799 62.0405 23.1125ZM10.9586 63.6444C11.5459 63.5081 12.2171 63.5501 12.0493 62.8474C11.9234 62.3126 11.871 61.4632 11.1894 61.4002C10.5182 61.3373 10.277 61.998 10.3085 62.6587C10.3399 63.1725 10.4343 63.613 10.9586 63.6444ZM29.122 4.65549C29.2898 4.49819 29.1325 4.46673 29.1115 4.39332C29.0276 4.42478 28.9332 4.42478 28.8703 4.47722C28.7445 4.5716 28.8808 4.67647 28.9228 4.68696C28.9962 4.70793 29.0905 4.65549 29.122 4.65549ZM40.1333 35.3927C40.1123 35.3507 40.0913 35.3088 40.0703 35.2668C40.0494 35.2878 40.0074 35.3088 40.0179 35.3297C40.0284 35.3717 40.0599 35.4136 40.0703 35.4556C40.0913 35.4451 40.1018 35.4241 40.1333 35.3927Z" fill="white" stroke="white" stroke-width="0.262173" stroke-miterlimit="10"/>
    </g>
    <g clip-path="url(#clip1_318_966)">
        <path d="M111.55 55.1177L109.41 61.5986H106.663L113.657 41.0023H116.866L123.893 61.5986H121.051L118.848 55.1177H111.55ZM118.314 53.0413L116.29 47.1162C115.828 45.7739 115.524 44.5469 115.22 43.3619H115.157C114.853 44.5888 114.517 45.8368 114.119 47.0952L112.105 53.0518H118.314V53.0413Z" fill="white" stroke="white" stroke-width="0.524346" stroke-miterlimit="10"/>
        <path d="M126.63 61.5992C126.693 60.5924 126.755 59.0928 126.755 57.7819V39.9017H129.419V49.1931H129.482C130.426 47.5467 132.146 46.477 134.526 46.477C138.197 46.477 140.787 49.5287 140.756 54.0276C140.756 59.313 137.421 61.9452 134.128 61.9452C131.988 61.9452 130.279 61.1168 129.178 59.1662H129.084L128.958 61.6097H126.63V61.5992ZM129.409 55.6741C129.409 56.0096 129.472 56.3452 129.535 56.6493C130.059 58.516 131.611 59.7954 133.572 59.7954C136.382 59.7954 138.06 57.4988 138.06 54.1115C138.06 51.1437 136.529 48.6059 133.656 48.6059C131.821 48.6059 130.111 49.8538 129.555 51.9093C129.493 52.2134 129.398 52.5804 129.398 53.0104V55.6741H129.409Z" fill="white" stroke="white" stroke-width="0.524346" stroke-miterlimit="10"/>
        <path d="M157.524 54.0797C157.524 59.5539 153.738 61.9344 150.162 61.9344C146.156 61.9344 143.073 58.9981 143.073 54.3209C143.073 49.3711 146.313 46.4662 150.403 46.4662C154.651 46.4767 157.524 49.5598 157.524 54.0797ZM145.789 54.237C145.789 57.4775 147.656 59.9209 150.278 59.9209C152.847 59.9209 154.766 57.5089 154.766 54.1741C154.766 51.6677 153.518 48.4902 150.33 48.4902C147.142 48.4902 145.789 51.4265 145.789 54.237Z" fill="white" stroke="white" stroke-width="0.524346" stroke-miterlimit="10"/>
        <path d="M173.663 46.8128C173.601 47.8824 173.538 49.0779 173.538 50.8817V59.4705C173.538 62.8578 172.866 64.9447 171.43 66.2241C169.993 67.5664 167.917 67.9964 166.05 67.9964C164.278 67.9964 162.317 67.5664 161.132 66.7694L161.803 64.7244C162.778 65.3327 164.309 65.8885 166.144 65.8885C168.892 65.8885 170.916 64.4518 170.916 60.7289V59.0825H170.853C170.024 60.4563 168.441 61.5574 166.144 61.5574C162.474 61.5574 159.852 58.4428 159.852 54.3424C159.852 49.3296 163.124 46.4877 166.511 46.4877C169.081 46.4877 170.486 47.83 171.126 49.057H171.189L171.314 46.8233H173.663V46.8128ZM170.884 52.6435C170.884 52.1821 170.853 51.7836 170.727 51.4165C170.234 49.854 168.923 48.5746 166.973 48.5746C164.404 48.5746 162.568 50.7454 162.568 54.1641C162.568 57.069 164.036 59.481 166.941 59.481C168.588 59.481 170.087 58.4428 170.675 56.7334C170.832 56.272 170.884 55.7581 170.884 55.2967V52.6435Z" fill="white" stroke="white" stroke-width="0.524346" stroke-miterlimit="10"/>
        <path d="M186.196 61.5993L185.986 59.7326H185.891C185.063 60.8967 183.479 61.9349 181.372 61.9349C178.372 61.9349 176.852 59.827 176.852 57.6877C176.852 54.1117 180.029 52.1506 185.745 52.1821V51.8779C185.745 50.651 185.409 48.4592 182.378 48.4592C181.005 48.4592 179.568 48.8892 178.53 49.5603L177.921 47.788C179.148 46.991 180.921 46.4772 182.777 46.4772C187.297 46.4772 188.398 49.5603 188.398 52.5281V58.0547C188.398 59.3341 188.461 60.5926 188.639 61.5993H186.196ZM185.797 54.0487C182.861 53.9858 179.536 54.5102 179.536 57.3836C179.536 59.1244 180.7 59.9529 182.074 59.9529C184.004 59.9529 185.22 58.7259 185.65 57.478C185.745 57.2053 185.808 56.9012 185.808 56.618V54.0487H185.797Z" fill="white" stroke="white" stroke-width="0.524346" stroke-miterlimit="10"/>
        <path d="M205.513 39.9017V57.7819C205.513 59.0928 205.544 60.5924 205.638 61.5992H203.226L203.101 59.0299H203.038C202.209 60.6763 200.405 61.9348 197.993 61.9348C194.417 61.9348 191.67 58.9145 191.67 54.4156C191.638 49.4973 194.701 46.4665 198.298 46.4665C200.563 46.4665 202.083 47.5362 202.754 48.7317H202.817V39.9017H205.513ZM202.817 52.8321C202.817 52.4965 202.786 52.0351 202.692 51.6995C202.293 49.9902 200.825 48.5849 198.811 48.5849C196.032 48.5849 194.375 51.0284 194.375 54.3003C194.375 57.2995 195.844 59.7745 198.748 59.7745C200.552 59.7745 202.199 58.5789 202.692 56.5655C202.786 56.1984 202.817 55.8314 202.817 55.4014V52.8321Z" fill="white" stroke="white" stroke-width="0.524346" stroke-miterlimit="10"/>
        <path d="M223.361 54.0797C223.361 59.5539 219.575 61.9344 215.999 61.9344C211.993 61.9344 208.91 58.9981 208.91 54.3209C208.91 49.3711 212.151 46.4662 216.241 46.4662C220.488 46.4767 223.361 49.5598 223.361 54.0797ZM211.626 54.237C211.626 57.4775 213.493 59.9209 216.115 59.9209C218.684 59.9209 220.603 57.5089 220.603 54.1741C220.603 51.6677 219.355 48.4902 216.167 48.4902C212.979 48.4902 211.626 51.4265 211.626 54.237Z" fill="white" stroke="white" stroke-width="0.524346" stroke-miterlimit="10"/>
        <path d="M226.392 58.8517C227.189 59.3761 228.594 59.9214 229.936 59.9214C231.897 59.9214 232.81 58.9461 232.81 57.7192C232.81 56.4398 232.044 55.7371 230.062 55.003C227.398 54.0592 226.15 52.5911 226.15 50.8188C226.15 48.4382 228.08 46.4772 231.258 46.4772C232.757 46.4772 234.068 46.9071 234.897 47.3895L234.225 49.3506C233.649 48.9835 232.579 48.4907 231.205 48.4907C229.611 48.4907 228.73 49.403 228.73 50.5042C228.73 51.7311 229.611 52.2764 231.541 53.0105C234.11 53.9858 235.421 55.2757 235.421 57.4675C235.421 60.0682 233.407 61.9034 229.894 61.9034C228.279 61.9034 226.78 61.5049 225.741 60.8967L226.392 58.8517Z" fill="white" stroke="white" stroke-width="0.524346" stroke-miterlimit="10"/>
        <path d="M104.072 17.9105H106.149V28.6911C106.149 32.9697 104.041 34.2806 101.272 34.2806C100.507 34.2806 99.5734 34.1128 99.0491 33.9031L99.3637 32.2042C99.7936 32.372 100.412 32.5188 101.105 32.5188C102.971 32.5188 104.072 31.6799 104.072 28.5338V17.9105Z" fill="white" stroke="white" stroke-width="0.262173" stroke-miterlimit="10"/>
        <path d="M115.944 34.0077L115.776 32.55H115.702C115.063 33.4624 113.815 34.2699 112.168 34.2699C109.83 34.2699 108.634 32.6235 108.634 30.9455C108.634 28.1455 111.12 26.6249 115.587 26.6459V26.4152C115.587 25.4609 115.325 23.741 112.955 23.741C111.885 23.741 110.753 24.0766 109.945 24.601L109.463 23.2167C110.417 22.598 111.801 22.189 113.259 22.189C116.793 22.189 117.653 24.601 117.653 26.9186V31.2392C117.653 32.2459 117.705 33.2212 117.842 34.0077H115.944ZM115.629 28.1141C113.332 28.0616 110.732 28.4706 110.732 30.7148C110.732 32.0781 111.644 32.7178 112.714 32.7178C114.224 32.7178 115.178 31.7635 115.514 30.7778C115.587 30.568 115.629 30.3268 115.629 30.1066V28.1141Z" fill="white" stroke="white" stroke-width="0.262173" stroke-miterlimit="10"/>
        <path d="M121.68 22.4513L123.945 28.9532C124.322 30.0019 124.637 30.9562 124.878 31.921H124.952C125.214 30.9667 125.549 30.0124 125.927 28.9532L128.171 22.4513H130.373L125.833 34.0079H123.83L119.425 22.4513H121.68Z" fill="white" stroke="white" stroke-width="0.262173" stroke-miterlimit="10"/>
        <path d="M134.694 19.2005C134.715 19.9136 134.191 20.4904 133.352 20.4904C132.607 20.4904 132.083 19.9136 132.083 19.2005C132.083 18.456 132.628 17.8897 133.394 17.8897C134.191 17.8792 134.694 18.456 134.694 19.2005ZM132.356 34.0081V22.4515H134.463V34.0081H132.356Z" fill="white" stroke="white" stroke-width="0.262173" stroke-miterlimit="10"/>
        <path d="M139.12 28.6076C139.172 31.4495 140.986 32.6241 143.084 32.6241C144.594 32.6241 145.496 32.3619 146.282 32.0263L146.639 33.5364C145.894 33.872 144.636 34.2495 142.79 34.2495C139.235 34.2495 137.106 31.9109 137.106 28.4188C137.106 24.9267 139.162 22.1791 142.528 22.1791C146.303 22.1791 147.31 25.5034 147.31 27.6218C147.31 28.0518 147.257 28.3873 147.236 28.5971H139.12V28.6076ZM145.275 27.1079C145.296 25.7656 144.73 23.6892 142.36 23.6892C140.231 23.6892 139.298 25.6502 139.13 27.1079H145.275Z" fill="white" stroke="white" stroke-width="0.262173" stroke-miterlimit="10"/>
        <path d="M149.911 26.0592C149.911 24.6959 149.89 23.5214 149.816 22.4517H151.651L151.725 24.7169H151.819C152.344 23.1648 153.613 22.1791 155.018 22.1791C155.259 22.1791 155.427 22.2001 155.616 22.2525V24.2345C155.406 24.1821 155.186 24.1611 154.902 24.1611C153.424 24.1611 152.375 25.2832 152.081 26.8562C152.029 27.1394 151.987 27.475 151.987 27.8315V33.9978H149.911V26.0592Z" fill="white" stroke="white" stroke-width="0.262173" stroke-miterlimit="10"/>
        <path d="M170.381 29.5096L168.714 33.9665H166.564L172.038 19.7987H174.544L180.04 33.9665H177.816L176.096 29.5096H170.381ZM175.666 28.0834L174.093 24.004C173.737 23.0811 173.496 22.2422 173.255 21.4137H173.202C172.961 22.2526 172.699 23.1126 172.395 23.983L170.822 28.0834H175.666Z" fill="white" stroke="white" stroke-width="0.262173" stroke-miterlimit="10"/>
        <path d="M182.263 19.0435H184.371V33.9664H182.263V19.0435Z" fill="white" stroke="white" stroke-width="0.262173" stroke-miterlimit="10"/>
        <path d="M188.115 33.9665V25.1994H186.489V23.7942H188.115V23.3118C188.115 21.8855 188.471 20.5747 189.457 19.7567C190.244 19.0855 191.292 18.8129 192.278 18.8129C193.023 18.8129 193.662 18.9597 194.071 19.1065L193.788 20.5327C193.474 20.4069 193.044 20.302 192.446 20.302C190.653 20.302 190.202 21.6863 190.202 23.2488V23.7942H192.991V25.1994H190.202V33.9665H188.115Z" fill="white" stroke="white" stroke-width="0.262173" stroke-miterlimit="10"/>
        <path d="M205.03 28.796C205.03 32.5608 202.062 34.1967 199.273 34.1967C196.148 34.1967 193.736 32.1832 193.736 28.9638C193.736 25.5555 196.263 23.563 199.472 23.563C202.786 23.563 205.03 25.6813 205.03 28.796ZM195.854 28.9008C195.854 31.1345 197.312 32.8125 199.367 32.8125C201.37 32.8125 202.88 31.1555 202.88 28.8589C202.88 27.139 201.905 24.9473 199.42 24.9473C196.934 24.9473 195.854 26.9712 195.854 28.9008Z" fill="white" stroke="white" stroke-width="0.262173" stroke-miterlimit="10"/>
        <path d="M207.683 26.5413C207.683 25.4926 207.662 24.6326 207.589 23.7832H209.456L209.571 25.4611H209.623C210.2 24.4963 211.532 23.5525 213.451 23.5525C215.056 23.5525 217.541 24.3914 217.541 27.8836V33.9555H215.433V28.1038C215.433 26.4679 214.741 25.0941 212.759 25.0941C211.375 25.0941 210.294 25.954 209.938 26.9817C209.844 27.2124 209.791 27.527 209.791 27.8416V33.9555H207.683V26.5413Z" fill="white" stroke="white" stroke-width="0.262173" stroke-miterlimit="10"/>
        <path d="M220.655 32.0784C221.274 32.4349 222.375 32.8125 223.424 32.8125C224.955 32.8125 225.668 32.1413 225.668 31.3023C225.668 30.4214 225.07 29.939 223.518 29.4357C221.442 28.7855 220.456 27.7787 220.456 26.5518C220.456 24.9158 221.966 23.563 224.441 23.563C225.616 23.563 226.643 23.8566 227.283 24.1922L226.759 25.5345C226.308 25.2828 225.469 24.9473 224.389 24.9473C223.151 24.9473 222.449 25.5765 222.449 26.3315C222.449 27.1705 223.141 27.548 224.651 28.0514C226.654 28.7226 227.682 29.6035 227.682 31.1241C227.682 32.9068 226.109 34.1758 223.361 34.1758C222.092 34.1758 220.928 33.9031 220.11 33.4836L220.655 32.0784Z" fill="white" stroke="white" stroke-width="0.262173" stroke-miterlimit="10"/>
        <path d="M240.864 28.796C240.864 32.5608 237.906 34.1967 235.106 34.1967C231.981 34.1967 229.569 32.1832 229.569 28.9638C229.569 25.5555 232.097 23.563 235.306 23.563C238.62 23.563 240.864 25.6813 240.864 28.796ZM231.688 28.9008C231.688 31.1345 233.145 32.8125 235.201 32.8125C237.204 32.8125 238.714 31.1555 238.714 28.8589C238.714 27.139 237.739 24.9473 235.253 24.9473C232.768 24.9473 231.688 26.9712 231.688 28.9008Z" fill="white" stroke="white" stroke-width="0.262173" stroke-miterlimit="10"/>
    </g>
    <defs>
        <clipPath id="clip0_318_966">
            <rect width="82.1231" height="85.9613" fill="white" transform="translate(0 0.0192871)"/>
        </clipPath>
        <clipPath id="clip1_318_966">
            <rect width="142.098" height="50.4945" fill="white" transform="translate(98.9023 17.7527)"/>
        </clipPath>
    </defs>
</svg>
