<svg width="24" height="24" viewBox="0 0 24 24" fill="none"
    xmlns="http://www.w3.org/2000/svg">
    <path d="M11.9996 0.363647C8.84183 0.363647 8.44474 0.378193 7.20401 0.433466C5.96328 0.491647 5.11819 0.686557 4.37783 0.974557C3.60124 1.26666 2.89781 1.72485 2.31674 2.3171C1.72485 2.89848 1.26671 3.60181 0.97419 4.37819C0.68619 5.1171 0.489827 5.96365 0.433099 7.20001C0.377827 8.44365 0.363281 8.83928 0.363281 12.0015C0.363281 15.1607 0.377827 15.5564 0.433099 16.7971C0.491281 18.0364 0.68619 18.8815 0.97419 19.6218C1.27237 20.3869 1.66946 21.0356 2.31674 21.6829C2.96255 22.3302 3.61128 22.7287 4.37637 23.0255C5.11819 23.3135 5.96183 23.5098 7.2011 23.5666C8.44328 23.6218 8.83892 23.6364 11.9996 23.6364C15.1604 23.6364 15.5546 23.6218 16.7967 23.5666C18.0346 23.5084 18.8826 23.3135 19.6229 23.0255C20.399 22.7332 21.1019 22.275 21.6826 21.6829C22.3298 21.0356 22.7269 20.3869 23.0251 19.6218C23.3116 18.8815 23.508 18.0364 23.5662 16.7971C23.6215 15.5564 23.636 15.1607 23.636 12C23.636 8.83928 23.6215 8.44365 23.5662 7.20147C23.508 5.96365 23.3116 5.1171 23.0251 4.37819C22.7326 3.60179 22.2745 2.89845 21.6826 2.3171C21.1017 1.72463 20.3982 1.2664 19.6215 0.974557C18.8796 0.686557 18.0331 0.490193 16.7953 0.433466C15.5531 0.378193 15.1589 0.363647 11.9967 0.363647H12.0011H11.9996ZM10.9567 2.4611H12.0011C15.108 2.4611 15.476 2.47128 16.7022 2.52801C17.8367 2.57892 18.4535 2.76947 18.8636 2.92801C19.4062 3.13892 19.7946 3.39201 20.2018 3.79928C20.6091 4.20656 20.8607 4.59347 21.0716 5.13747C21.2316 5.54619 21.4207 6.16292 21.4716 7.29747C21.5284 8.52365 21.54 8.89165 21.54 11.9971C21.54 15.1026 21.5284 15.472 21.4716 16.6982C21.4207 17.8327 21.2302 18.448 21.0716 18.8582C20.8851 19.3634 20.5873 19.8203 20.2004 20.1949C19.7931 20.6022 19.4062 20.8538 18.8622 21.0647C18.4549 21.2247 17.8382 21.4138 16.7022 21.4662C15.476 21.5215 15.108 21.5346 12.0011 21.5346C8.89419 21.5346 8.52474 21.5215 7.29855 21.4662C6.16401 21.4138 5.54874 21.2247 5.13855 21.0647C4.6331 20.8784 4.17583 20.5812 3.80037 20.1949C3.4131 19.8197 3.11488 19.3624 2.92764 18.8567C2.7691 18.448 2.57855 17.8313 2.52765 16.6967C2.47237 15.4706 2.46074 15.1026 2.46074 11.9942C2.46074 8.88728 2.47237 8.52074 2.52765 7.29456C2.58001 6.16001 2.7691 5.54328 2.9291 5.1331C3.14001 4.59056 3.3931 4.20219 3.80037 3.79492C4.20764 3.38765 4.59455 3.13601 5.13855 2.9251C5.54874 2.7651 6.16401 2.57601 7.29855 2.52365C8.37201 2.47419 8.78801 2.45965 10.9567 2.45819V2.4611ZM18.212 4.39274C18.0286 4.39274 17.8471 4.42886 17.6776 4.49903C17.5082 4.5692 17.3543 4.67206 17.2246 4.80172C17.095 4.93139 16.9921 5.08532 16.9219 5.25474C16.8518 5.42415 16.8156 5.60573 16.8156 5.7891C16.8156 5.97248 16.8518 6.15405 16.9219 6.32347C16.9921 6.49288 17.095 6.64682 17.2246 6.77648C17.3543 6.90614 17.5082 7.009 17.6776 7.07917C17.8471 7.14935 18.0286 7.18547 18.212 7.18547C18.5823 7.18547 18.9375 7.03835 19.1994 6.77648C19.4613 6.51461 19.6084 6.15944 19.6084 5.7891C19.6084 5.41876 19.4613 5.06359 19.1994 4.80172C18.9375 4.53986 18.5823 4.39274 18.212 4.39274ZM12.0011 6.02474C11.2085 6.01237 10.4213 6.15781 9.68543 6.45258C8.94955 6.74735 8.27967 7.18557 7.71477 7.74172C7.14988 8.29787 6.70127 8.96084 6.39505 9.69203C6.08883 10.4232 5.93114 11.208 5.93114 12.0007C5.93114 12.7935 6.08883 13.5783 6.39505 14.3095C6.70127 15.0406 7.14988 15.7036 7.71477 16.2598C8.27967 16.8159 8.94955 17.2541 9.68543 17.5489C10.4213 17.8437 11.2085 17.9891 12.0011 17.9767C13.5699 17.9523 15.0661 17.3119 16.1669 16.1938C17.2676 15.0758 17.8846 13.5697 17.8846 12.0007C17.8846 10.4318 17.2676 8.9257 16.1669 7.80765C15.0661 6.68959 13.5699 6.04921 12.0011 6.02474ZM12.0011 8.12074C13.0299 8.12074 14.0167 8.52945 14.7442 9.25695C15.4717 9.98446 15.8804 10.9712 15.8804 12C15.8804 13.0289 15.4717 14.0156 14.7442 14.7431C14.0167 15.4706 13.0299 15.8793 12.0011 15.8793C10.9723 15.8793 9.98554 15.4706 9.25804 14.7431C8.53053 14.0156 8.12183 13.0289 8.12183 12C8.12183 10.9712 8.53053 9.98446 9.25804 9.25695C9.98554 8.52945 10.9723 8.12074 12.0011 8.12074Z" fill="#282E3F"/>
</svg>
