<svg width="24" height="20" viewBox="0 0 24 20" fill="none"
    xmlns="http://www.w3.org/2000/svg">
    <path d="M12 0.898438C11.6464 0.898438 11.3072 1.03891 11.0572 1.28896C10.8071 1.53901 10.6667 1.87815 10.6667 2.23177C10.6667 2.58539 10.8071 2.92453 11.0572 3.17458C11.3072 3.42463 11.6464 3.5651 12 3.5651H22.6667C23.0203 3.5651 23.3594 3.42463 23.6095 3.17458C23.8595 2.92453 24 2.58539 24 2.23177C24 1.87815 23.8595 1.53901 23.6095 1.28896C23.3594 1.03891 23.0203 0.898438 22.6667 0.898438H12ZM5.33333 10.2318C5.33333 9.87815 5.47381 9.53901 5.72386 9.28896C5.97391 9.03891 6.31305 8.89844 6.66667 8.89844H17.3333C17.687 8.89844 18.0261 9.03891 18.2761 9.28896C18.5262 9.53901 18.6667 9.87815 18.6667 10.2318C18.6667 10.5854 18.5262 10.9245 18.2761 11.1746C18.0261 11.4246 17.687 11.5651 17.3333 11.5651H6.66667C6.31305 11.5651 5.97391 11.4246 5.72386 11.1746C5.47381 10.9245 5.33333 10.5854 5.33333 10.2318ZM0 18.2318C0 17.8781 0.140476 17.539 0.390524 17.289C0.640573 17.0389 0.979711 16.8984 1.33333 16.8984H12C12.3536 16.8984 12.6928 17.0389 12.9428 17.289C13.1929 17.539 13.3333 17.8781 13.3333 18.2318C13.3333 18.5854 13.1929 18.9245 12.9428 19.1746C12.6928 19.4246 12.3536 19.5651 12 19.5651H1.33333C0.979711 19.5651 0.640573 19.4246 0.390524 19.1746C0.140476 18.9245 0 18.5854 0 18.2318Z" fill="white"/>
</svg>
