<svg width="24" height="19" viewBox="0 0 24 19" fill="none" xmlns="http://www.w3.org/2000/svg">
<path d="M12 0.237793C11.6464 0.237793 11.3072 0.378269 11.0572 0.628317C10.8071 0.878366 10.6667 1.2175 10.6667 1.57113C10.6667 1.92475 10.8071 2.26389 11.0572 2.51393C11.3072 2.76398 11.6464 2.90446 12 2.90446H22.6667C23.0203 2.90446 23.3594 2.76398 23.6095 2.51393C23.8595 2.26389 24 1.92475 24 1.57113C24 1.2175 23.8595 0.878366 23.6095 0.628317C23.3594 0.378269 23.0203 0.237793 22.6667 0.237793H12ZM5.33333 9.57113C5.33333 9.2175 5.47381 8.87837 5.72386 8.62832C5.97391 8.37827 6.31304 8.23779 6.66667 8.23779H17.3333C17.687 8.23779 18.0261 8.37827 18.2761 8.62832C18.5262 8.87837 18.6667 9.2175 18.6667 9.57113C18.6667 9.92475 18.5262 10.2639 18.2761 10.5139C18.0261 10.764 17.687 10.9045 17.3333 10.9045H6.66667C6.31304 10.9045 5.97391 10.764 5.72386 10.5139C5.47381 10.2639 5.33333 9.92475 5.33333 9.57113ZM0 17.5711C0 17.2175 0.140476 16.8784 0.390524 16.6283C0.640573 16.3783 0.979711 16.2378 1.33333 16.2378H12C12.3536 16.2378 12.6928 16.3783 12.9428 16.6283C13.1929 16.8784 13.3333 17.2175 13.3333 17.5711C13.3333 17.9247 13.1929 18.2639 12.9428 18.5139C12.6928 18.764 12.3536 18.9045 12 18.9045H1.33333C0.979711 18.9045 0.640573 18.764 0.390524 18.5139C0.140476 18.2639 0 17.9247 0 17.5711Z" fill="#13181E"/>
</svg>
