<svg width="24" height="24" viewBox="0 0 24 24" fill="none"
    xmlns="http://www.w3.org/2000/svg">
    <path d="M13.6165 11.9508L22.7355 2.83179C22.9157 2.62136 23.0099 2.35067 22.9992 2.07383C22.9885 1.79699 22.8737 1.53437 22.6778 1.33847C22.4819 1.14257 22.2193 1.0278 21.9425 1.01711C21.6656 1.00641 21.3949 1.10058 21.1845 1.28079L12.0655 10.3998L2.9465 1.26979C2.73936 1.06266 2.45843 0.946289 2.1655 0.946289C1.87257 0.946289 1.59163 1.06266 1.3845 1.26979C1.17736 1.47692 1.061 1.75786 1.061 2.05079C1.061 2.34372 1.17736 2.62466 1.3845 2.83179L10.5145 11.9508L1.3845 21.0698C1.26935 21.1684 1.17583 21.2898 1.1098 21.4262C1.04377 21.5627 1.00667 21.7113 1.00082 21.8628C0.994968 22.0143 1.02049 22.1654 1.0758 22.3065C1.1311 22.4477 1.21498 22.5759 1.32218 22.6831C1.42938 22.7903 1.55758 22.8742 1.69874 22.9295C1.8399 22.9848 1.99097 23.0103 2.14246 23.0045C2.29395 22.9986 2.44259 22.9615 2.57906 22.8955C2.71554 22.8295 2.83689 22.7359 2.9355 22.6208L12.0655 13.5018L21.1845 22.6208C21.3949 22.801 21.6656 22.8952 21.9425 22.8845C22.2193 22.8738 22.4819 22.759 22.6778 22.5631C22.8737 22.3672 22.9885 22.1046 22.9992 21.8277C23.0099 21.5509 22.9157 21.2802 22.7355 21.0698L13.6165 11.9508Z" fill="white" stroke="white" stroke-width="0.7"/>
</svg>
