<svg width="37" height="33" viewBox="0 0 37 33" fill="none"
    xmlns="http://www.w3.org/2000/svg">
    <path d="M20.0357 1.96434V4.71434H23.1393C23.6908 4.71434 24.2298 4.88091 24.6855 5.19048L27.3523 7.00391C27.4167 7.04791 27.4937 7.07148 27.5723 7.07148H34.0183C34.3308 7.07148 34.6306 7.19565 34.8516 7.41668C35.0727 7.6377 35.1968 7.93748 35.1968 8.25005C35.1968 8.56263 35.0727 8.8624 34.8516 9.08343C34.6306 9.30445 34.3308 9.42862 34.0183 9.42862H31.5385L36.828 21.4972C36.9341 21.7385 36.9561 22.0084 36.8906 22.2637C36.8251 22.519 36.6757 22.7449 36.4665 22.9052C36.3094 23.0215 36.1475 23.1299 35.9794 23.2289C35.5808 23.4668 35.166 23.6763 34.738 23.8559C33.3166 24.4503 31.7906 24.7544 30.25 24.7501C28.7099 24.7549 27.1845 24.4514 25.7635 23.8575C25.3353 23.6778 24.9204 23.4677 24.5221 23.2289C24.3554 23.1324 24.1943 23.0264 24.0397 22.9115L24.0318 22.9052C23.8226 22.7449 23.6733 22.519 23.6078 22.2637C23.5422 22.0084 23.5643 21.7385 23.6704 21.4972L28.963 9.42862H27.5707C27.0191 9.42862 26.4801 9.26205 26.0244 8.95248L23.3577 7.13905C23.2929 7.09472 23.2162 7.07115 23.1377 7.07148H20.0357V29.8572H27.0867C27.3993 29.8572 27.699 29.9814 27.9201 30.2024C28.1411 30.4234 28.2653 30.7232 28.2653 31.0358C28.2653 31.3483 28.1411 31.6481 27.9201 31.8691C27.699 32.0902 27.3993 32.2143 27.0867 32.2143H10.6275C10.315 32.2143 10.0152 32.0902 9.79417 31.8691C9.57315 31.6481 9.44898 31.3483 9.44898 31.0358C9.44898 30.7232 9.57315 30.4234 9.79417 30.2024C10.0152 29.9814 10.315 29.8572 10.6275 29.8572H17.6785V7.07148H14.575C14.4965 7.07144 14.4199 7.09498 14.355 7.13905L11.6898 8.95248C11.2341 9.26205 10.6951 9.42862 10.1435 9.42862H8.75126L14.0438 21.4972C14.1463 21.7317 14.1696 21.9931 14.1104 22.242C14.0511 22.4909 13.9125 22.7138 13.7154 22.8769C13.5897 22.9791 13.464 23.0749 13.2283 23.2273C12.8308 23.4847 12.4148 23.7121 11.9837 23.9078C10.5644 24.5525 9.02314 24.8848 7.46426 24.8821C5.90533 24.8853 4.36395 24.553 2.94484 23.9078C2.51368 23.7121 2.09768 23.4847 1.70026 23.2273C1.53221 23.1205 1.37011 23.0046 1.21469 22.8801C1.01917 22.715 0.881642 22.4918 0.822256 22.2429C0.76287 21.994 0.784751 21.7327 0.884692 21.4972L6.17569 9.42862H3.69755C3.38497 9.42862 3.0852 9.30445 2.86417 9.08343C2.64315 8.8624 2.51898 8.56263 2.51898 8.25005C2.51898 7.93748 2.64315 7.6377 2.86417 7.41668C3.0852 7.19565 3.38497 7.07148 3.69755 7.07148H10.1435C10.2221 7.07148 10.2991 7.04791 10.3651 7.00391L13.0287 5.19048C13.4844 4.87934 14.025 4.71434 14.5765 4.71434H17.6785V1.96434C17.6785 1.65176 17.8027 1.35199 18.0237 1.13096C18.2448 0.909937 18.5445 0.785767 18.8571 0.785767C19.1697 0.785767 19.4695 0.909937 19.6905 1.13096C19.9115 1.35199 20.0357 1.65176 20.0357 1.96434ZM3.44612 21.5255C4.6829 22.1839 6.06315 22.5267 7.46426 22.5233C8.86538 22.5267 10.2456 22.1839 11.4824 21.5255L7.46426 12.3641L3.44612 21.5255ZM26.2475 21.4878C26.3764 21.5506 26.521 21.6182 26.6797 21.6858C27.5126 22.0362 28.7304 22.3929 30.25 22.3929C31.6353 22.3968 33.0036 22.0874 34.2524 21.4878L30.25 12.3625L26.2475 21.4878Z" fill="white"/>
</svg>
